<?xml version="1.0" encoding="iso-8859-1"?>
<!-- Generator: Adobe Illustrator 18.0.0, SVG Export Plug-In . SVG Version: 6.00 Build 0)  -->
<!DOCTYPE svg PUBLIC "-//W3C//DTD SVG 1.1//EN" "http://www.w3.org/Graphics/SVG/1.1/DTD/svg11.dtd">
<svg version="1.1" id="Capa_1" xmlns="http://www.w3.org/2000/svg" xmlns:xlink="http://www.w3.org/1999/xlink" x="0px" y="0px"
	 viewBox="0 0 314 314" style="enable-background:new 0 0 314 314;" xml:space="preserve">
<path d="M310.671,148.789c-2.068-1.275-4.65-1.386-6.821-0.291l-61.511,31v-17.911c0-6.592-3.469-12.376-8.666-15.664
	c24.829-11.503,42.102-36.645,42.102-65.76c0-39.945-32.498-72.442-72.444-72.442c-28.844,0-53.797,16.948-65.443,41.404
	C126.241,24.668,101.288,7.72,72.444,7.72C32.498,7.72,0,40.217,0,80.163c0,29.115,17.272,54.256,42.102,65.76
	c-5.198,3.288-8.667,9.072-8.667,15.664v126.147c0,10.227,8.319,18.546,18.545,18.546h171.815c10.226,0,18.544-8.319,18.544-18.546
	v-17.906l61.511,30.999c0.993,0.501,2.073,0.749,3.15,0.749c1.275,0,2.549-0.349,3.671-1.04c2.069-1.273,3.329-3.53,3.329-5.96
	V154.749C314,152.319,312.74,150.062,310.671,148.789z M203.33,21.72c32.227,0,58.444,26.217,58.444,58.442
	c0,32.227-26.218,58.444-58.444,58.444c-32.226,0-58.443-26.218-58.443-58.444C144.887,47.937,171.104,21.72,203.33,21.72z
	 M167.428,143.044h-59.081c12.802-7.339,23.167-18.459,29.54-31.843C144.261,124.585,154.625,135.706,167.428,143.044z M14,80.163
	C14,47.937,40.218,21.72,72.444,21.72c32.226,0,58.442,26.217,58.442,58.442c0,32.227-26.217,58.444-58.442,58.444
	C40.218,138.607,14,112.389,14,80.163z M228.339,287.734c0,2.464-2.081,4.546-4.544,4.546H51.979c-2.464,0-4.545-2.082-4.545-4.546
	V161.586c0-2.462,2.081-4.542,4.545-4.542h171.815c2.463,0,4.544,2.08,4.544,4.542V287.734z M300,283.209l-57.661-29.059v-58.977
	L300,166.115V283.209z"/>
<g>
</g>
<g>
</g>
<g>
</g>
<g>
</g>
<g>
</g>
<g>
</g>
<g>
</g>
<g>
</g>
<g>
</g>
<g>
</g>
<g>
</g>
<g>
</g>
<g>
</g>
<g>
</g>
<g>
</g>
</svg>
