<?xml version="1.0" encoding="iso-8859-1"?>
<!-- Generator: Adobe Illustrator 18.0.0, SVG Export Plug-In . SVG Version: 6.00 Build 0)  -->
<!DOCTYPE svg PUBLIC "-//W3C//DTD SVG 1.1//EN" "http://www.w3.org/Graphics/SVG/1.1/DTD/svg11.dtd">
<svg version="1.1" id="Capa_1" xmlns="http://www.w3.org/2000/svg" xmlns:xlink="http://www.w3.org/1999/xlink" x="0px" y="0px"
	 viewBox="0 0 314 314" style="enable-background:new 0 0 314 314;" xml:space="preserve">
<path d="M259.366,93.174c-2.069-1.275-4.651-1.386-6.821-0.291l-37.002,18.647v-7.897c0-3.773-1.452-7.206-3.811-9.799
	c15.378-8.554,25.811-24.966,25.811-43.775C237.543,22.456,215.086,0,187.482,0c-18.298,0-34.327,9.874-43.06,24.568
	C135.69,9.874,119.663,0,101.364,0c-27.603,0-50.06,22.456-50.06,50.059c0,18.81,10.433,35.222,25.81,43.775
	c-2.358,2.593-3.81,6.025-3.81,9.799v83.001c0,8.049,6.547,14.597,14.595,14.597h12.723l36.492,49.385L98.523,302.84
	c-2.298,3.109-1.64,7.492,1.47,9.79c1.252,0.925,2.709,1.37,4.154,1.37c2.146,0,4.263-0.982,5.636-2.84l36.036-48.766l36.035,48.766
	c1.373,1.857,3.49,2.84,5.636,2.84c1.444,0,2.903-0.445,4.154-1.37c3.109-2.298,3.768-6.681,1.47-9.79l-38.592-52.225l36.493-49.385
	h9.933c8.048,0,14.595-6.548,14.595-14.597v-7.895l37.002,18.646c0.993,0.501,2.073,0.749,3.15,0.749
	c1.275,0,2.549-0.349,3.671-1.04c2.069-1.273,3.329-3.53,3.329-5.96V99.134C262.695,96.704,261.435,94.447,259.366,93.174z
	 M187.482,14c19.884,0,36.061,16.176,36.061,36.059c0,19.884-16.177,36.061-36.061,36.061s-36.06-16.177-36.06-36.061
	C151.423,30.176,167.599,14,187.482,14z M156.122,89.038h-23.398c4.657-3.755,8.629-8.321,11.699-13.488
	C147.493,80.717,151.465,85.283,156.122,89.038z M65.305,50.059C65.305,30.176,81.48,14,101.364,14
	c19.883,0,36.059,16.176,36.059,36.059c0,19.884-16.176,36.061-36.059,36.061C81.48,86.119,65.305,69.942,65.305,50.059z
	 M145.819,238.836L118.03,201.23h55.577L145.819,238.836z M201.543,186.634c0,0.313-0.283,0.597-0.595,0.597H87.899
	c-0.312,0-0.595-0.284-0.595-0.597v-83.001c0-0.312,0.283-0.595,0.595-0.595h113.049c0.312,0,0.595,0.283,0.595,0.595v19.264v44.477
	V186.634z M248.695,179.769l-33.152-16.706v-35.855l33.152-16.707V179.769z"/>
<g>
</g>
<g>
</g>
<g>
</g>
<g>
</g>
<g>
</g>
<g>
</g>
<g>
</g>
<g>
</g>
<g>
</g>
<g>
</g>
<g>
</g>
<g>
</g>
<g>
</g>
<g>
</g>
<g>
</g>
</svg>
