<?xml version="1.0" encoding="iso-8859-1"?>
<!-- Generator: Adobe Illustrator 18.0.0, SVG Export Plug-In . SVG Version: 6.00 Build 0)  -->
<!DOCTYPE svg PUBLIC "-//W3C//DTD SVG 1.1//EN" "http://www.w3.org/Graphics/SVG/1.1/DTD/svg11.dtd">
<svg version="1.1" id="Capa_1" xmlns="http://www.w3.org/2000/svg" xmlns:xlink="http://www.w3.org/1999/xlink" x="0px" y="0px"
	 viewBox="0 0 314 314" style="enable-background:new 0 0 314 314;" xml:space="preserve">
<path d="M288.913,7.534C277.183,2.676,261.739,0,245.425,0s-31.758,2.676-43.487,7.534c-13.687,5.669-21.225,13.97-21.225,23.371
	v22.932h-47.427V30.905c0-9.401-7.538-17.702-21.226-23.371C100.331,2.676,84.887,0,68.574,0S36.816,2.676,25.086,7.534
	C11.4,13.203,3.862,21.504,3.862,30.905v47.651c0,9.401,7.538,17.701,21.225,23.37c11.73,4.859,27.174,7.535,43.487,7.535
	s31.757-2.676,43.487-7.534c13.688-5.67,21.226-13.97,21.226-23.371v-10.72h16.714v192.002l-36.813,33.68
	c-2.852,2.61-3.049,7.038-0.44,9.891c1.381,1.509,3.271,2.274,5.167,2.274c1.688,0,3.38-0.607,4.724-1.835l27.361-25.033V307
	c0,3.866,3.134,7,7,7c3.866,0,7-3.134,7-7v-28.185l27.361,25.033c1.344,1.228,3.036,1.835,4.724,1.835
	c1.895,0,3.786-0.766,5.167-2.274c2.609-2.853,2.412-7.28-0.439-9.891l-36.813-33.68V67.837h16.713v10.72
	c0,9.401,7.538,17.701,21.225,23.37c11.73,4.859,27.174,7.535,43.487,7.535s31.757-2.676,43.487-7.534
	c13.688-5.67,21.226-13.97,21.226-23.371V30.905C310.138,21.504,302.6,13.203,288.913,7.534z M17.862,50.706
	c2.174,1.279,4.582,2.475,7.225,3.569c11.73,4.859,27.174,7.535,43.487,7.535s31.757-2.676,43.487-7.534
	c2.644-1.095,5.051-2.29,7.226-3.57v9.337c-8.357,6.207-26.454,12.004-50.713,12.004c-24.203,0-42.372-5.82-50.712-12.004V50.706z
	 M68.574,14c32.813,0,50.713,11.168,50.713,16.905s-17.899,16.905-50.713,16.905c-32.813,0-50.712-11.168-50.712-16.905
	S35.761,14,68.574,14z M68.574,95.462c-32.813,0-50.712-11.168-50.712-16.905v-2.3c12.777,6.176,30.944,9.79,50.712,9.79
	c19.813,0,37.948-3.609,50.713-9.786v2.296C119.287,84.294,101.387,95.462,68.574,95.462z M296.138,60.043
	c-8.357,6.207-26.454,12.004-50.713,12.004c-24.203,0-42.372-5.82-50.712-12.004v-9.337c2.174,1.279,4.582,2.475,7.225,3.569
	c11.73,4.859,27.174,7.535,43.487,7.535s31.757-2.676,43.487-7.534c2.643-1.095,5.051-2.29,7.226-3.57V60.043z M245.425,14
	c32.814,0,50.713,11.168,50.713,16.905s-17.899,16.905-50.713,16.905c-32.813,0-50.712-11.168-50.712-16.905S212.613,14,245.425,14z
	 M245.425,95.462c-32.813,0-50.712-11.168-50.712-16.905v-2.3c12.777,6.176,30.944,9.79,50.712,9.79
	c19.814,0,37.948-3.609,50.713-9.786v2.296C296.138,84.294,278.239,95.462,245.425,95.462z"/>
<g>
</g>
<g>
</g>
<g>
</g>
<g>
</g>
<g>
</g>
<g>
</g>
<g>
</g>
<g>
</g>
<g>
</g>
<g>
</g>
<g>
</g>
<g>
</g>
<g>
</g>
<g>
</g>
<g>
</g>
</svg>
