<?xml version="1.0" encoding="iso-8859-1"?>
<!-- Generator: Adobe Illustrator 18.0.0, SVG Export Plug-In . SVG Version: 6.00 Build 0)  -->
<!DOCTYPE svg PUBLIC "-//W3C//DTD SVG 1.1//EN" "http://www.w3.org/Graphics/SVG/1.1/DTD/svg11.dtd">
<svg version="1.1" id="Capa_1" xmlns="http://www.w3.org/2000/svg" xmlns:xlink="http://www.w3.org/1999/xlink" x="0px" y="0px"
	 viewBox="0 0 314 314" style="enable-background:new 0 0 314 314;" xml:space="preserve">
<path d="M314,165.895C314,79.326,243.57,8.896,157,8.896S0,79.326,0,165.895c0,16.388,2.52,32.523,7.476,47.982v32.917
	c0,15.467,12.772,28.371,29.593,31.121v3.1c0,13.282,12.24,24.088,27.286,24.088c15.045,0,27.285-10.806,27.285-24.088V179.49
	c0-13.282-12.24-24.088-27.285-24.088c-7.031,0-13.448,2.36-18.291,6.23C48.313,102.381,97.208,54.869,157,54.869
	s108.688,47.513,110.935,106.765c-4.843-3.87-11.261-6.232-18.292-6.232c-15.046,0-27.286,10.806-27.286,24.088v101.525
	c0,13.282,12.24,24.088,27.286,24.088c15.045,0,27.285-10.806,27.285-24.088v-3.1c16.82-2.751,29.593-15.654,29.593-31.121v-32.908
	C311.479,198.424,314,182.286,314,165.895z M21.476,246.795v-33.086c0-7.895,6.564-14.594,15.593-16.853v66.793
	C28.04,261.391,21.476,254.689,21.476,246.795z M51.068,179.49c0-5.468,6.084-10.088,13.286-10.088
	c7.201,0,13.285,4.62,13.285,10.088v101.525c0,5.468-6.084,10.088-13.285,10.088c-7.202,0-13.286-4.62-13.286-10.088V179.49z
	 M157,40.869c-68.939,0-125.026,56.087-125.026,125.026c0,5.869,0.417,11.734,1.228,17.518c-6.517,1.733-12.257,5.029-16.655,9.384
	C14.867,183.974,14,174.98,14,165.895c0-78.85,64.149-142.999,143-142.999s143,64.149,143,142.999
	c0,9.085-0.867,18.079-2.547,26.904c-4.397-4.355-10.138-7.652-16.655-9.386c0.81-5.788,1.227-11.654,1.227-17.519
	C282.025,96.956,225.939,40.869,157,40.869z M262.929,281.016c0,5.468-6.084,10.088-13.285,10.088
	c-7.202,0-13.286-4.62-13.286-10.088V179.49c0-5.468,6.084-10.088,13.286-10.088c7.201,0,13.285,4.62,13.285,10.088V281.016z
	 M292.522,246.795c0,7.895-6.565,14.596-15.593,16.855v-66.793c9.028,2.259,15.593,8.959,15.593,16.853V246.795z"/>
<g>
</g>
<g>
</g>
<g>
</g>
<g>
</g>
<g>
</g>
<g>
</g>
<g>
</g>
<g>
</g>
<g>
</g>
<g>
</g>
<g>
</g>
<g>
</g>
<g>
</g>
<g>
</g>
<g>
</g>
</svg>
