<?xml version="1.0" encoding="iso-8859-1"?>
<!-- Generator: Adobe Illustrator 18.0.0, SVG Export Plug-In . SVG Version: 6.00 Build 0)  -->
<!DOCTYPE svg PUBLIC "-//W3C//DTD SVG 1.1//EN" "http://www.w3.org/Graphics/SVG/1.1/DTD/svg11.dtd">
<svg version="1.1" id="Capa_1" xmlns="http://www.w3.org/2000/svg" xmlns:xlink="http://www.w3.org/1999/xlink" x="0px" y="0px"
	 viewBox="0 0 314 314" style="enable-background:new 0 0 314 314;" xml:space="preserve">
<g>
	<path d="M224.138,4.175C221.22,1.587,217.395,0,213.197,0h-8.459c-9.111,0-16.524,7.412-16.524,16.523v104.678
		c0,9.111,7.413,16.523,16.524,16.523h8.459c3.656,0,7.026-1.208,9.767-3.226c5.505-0.018,10.852-0.72,15.958-2.028
		c2.473,30.492,5.389,62.72,6.006,67.662c0.718,5.739,4.214,10.281,9.191,12.51V307c0,3.866,3.134,7,7,7c3.866,0,7-3.134,7-7
		v-94.143c5.22-2.141,8.932-6.792,9.674-12.726c0.929-7.438,10.134-110.553,10.134-130.811
		C287.926,33.848,259.437,4.923,224.138,4.175z M215.721,121.201c0,1.368-1.156,2.523-2.524,2.523h-8.459
		c-1.368,0-2.524-1.155-2.524-2.523V16.523c0-1.368,1.156-2.523,2.524-2.523h8.459c1.368,0,2.524,1.155,2.524,2.523V121.201z
		 M229.743,18.616c24.924,3.423,44.184,24.857,44.184,50.705c0,25.849-19.26,47.284-44.184,50.707V18.616z M263.9,198.395
		c-0.053,0.428-0.216,1.73-2.299,1.752h-0.41c-2.155-0.021-2.318-1.324-2.371-1.751c-0.559-4.477-3.602-37.795-6.272-71.134
		c7.118-3.677,13.479-8.617,18.773-14.537C268.628,148.149,264.707,191.932,263.9,198.395z"/>
	<path d="M109.262,33.286h-8.459c-4.198,0-8.024,1.587-10.942,4.175c-35.298,0.748-63.787,29.673-63.787,65.146
		c0,20.258,9.205,123.373,10.134,130.811c0.741,5.922,4.441,10.567,9.674,12.713V307c0,3.866,3.134,7,7,7c3.866,0,7-3.134,7-7
		v-61.061c4.966-2.225,8.472-6.772,9.191-12.521c0.616-4.941,3.533-37.169,6.005-67.661c5.107,1.309,10.454,2.01,15.959,2.028
		c2.74,2.018,6.111,3.225,9.767,3.225h8.459c9.111,0,16.524-7.412,16.524-16.523V49.81
		C125.787,40.698,118.373,33.286,109.262,33.286z M55.18,231.681c-0.053,0.428-0.216,1.73-2.299,1.752h-0.41
		c-2.155-0.022-2.318-1.324-2.371-1.751c-0.808-6.464-4.729-50.246-7.421-85.672c5.295,5.921,11.654,10.861,18.773,14.538
		C58.783,193.887,55.74,227.204,55.18,231.681z M84.257,153.314c-24.924-3.423-44.184-24.858-44.184-50.707
		c0-25.848,19.26-47.282,44.184-50.705V153.314z M111.787,154.487c0,1.368-1.156,2.523-2.524,2.523h-8.459
		c-1.368,0-2.524-1.155-2.524-2.523V49.81c0-1.368,1.156-2.524,2.524-2.524h8.459c1.368,0,2.524,1.155,2.524,2.524V154.487z"/>
</g>
<g>
</g>
<g>
</g>
<g>
</g>
<g>
</g>
<g>
</g>
<g>
</g>
<g>
</g>
<g>
</g>
<g>
</g>
<g>
</g>
<g>
</g>
<g>
</g>
<g>
</g>
<g>
</g>
<g>
</g>
</svg>
