<?xml version="1.0" encoding="iso-8859-1"?>
<!-- Generator: Adobe Illustrator 18.0.0, SVG Export Plug-In . SVG Version: 6.00 Build 0)  -->
<!DOCTYPE svg PUBLIC "-//W3C//DTD SVG 1.1//EN" "http://www.w3.org/Graphics/SVG/1.1/DTD/svg11.dtd">
<svg version="1.1" id="Capa_1" xmlns="http://www.w3.org/2000/svg" xmlns:xlink="http://www.w3.org/1999/xlink" x="0px" y="0px"
	 viewBox="0 0 314.001 314.001" style="enable-background:new 0 0 314.001 314.001;" xml:space="preserve">
<path d="M204.253,43.776c-9.31-12.1-19.861-25.812-29.104-40.503c-1.66-2.64-4.867-3.863-7.864-2.998
	c-2.997,0.864-5.061,3.606-5.061,6.726l0.001,232.375c-7.897-6.102-18.466-9.459-29.925-9.459c-13.135,0-26.119,4.27-36.562,12.024
	c-11.199,8.316-18.178,19.887-19.146,31.746c-0.932,11.407,3.919,22.669,12.976,30.123c7.983,6.572,18.942,10.191,30.856,10.191
	c5.691,0,11.43-0.826,17.057-2.455c9.919-2.873,19.211-8.367,26.164-15.472c8.249-8.429,12.578-18.438,12.578-28.952
	c0-8.872,0-237.321,0-237.321c5.757,7.988,11.554,15.523,16.947,22.532c16.457,21.383,32.002,41.58,30.209,54.2
	c-0.653,4.724-4.167,9.364-10.739,14.188c-3.117,2.287-3.79,6.667-1.503,9.784c2.287,3.119,6.67,3.791,9.784,1.503
	c9.786-7.18,15.126-14.886,16.322-23.53C239.864,90.046,223.368,68.612,204.253,43.776z M133.589,298.098
	c-4.361,1.263-8.789,1.902-13.163,1.902c-8.677,0-16.476-2.486-21.96-7c-5.517-4.542-8.478-11.336-7.919-18.176
	c0.641-7.842,5.574-15.731,13.538-21.645c7.93-5.887,18.214-9.264,28.216-9.264c8.678,0,16.479,2.486,21.966,7.002
	c5.042,4.148,7.942,10.055,7.959,16.206C162.266,282.003,147.849,293.967,133.589,298.098z"/>
<g>
</g>
<g>
</g>
<g>
</g>
<g>
</g>
<g>
</g>
<g>
</g>
<g>
</g>
<g>
</g>
<g>
</g>
<g>
</g>
<g>
</g>
<g>
</g>
<g>
</g>
<g>
</g>
<g>
</g>
</svg>
