<?xml version="1.0" encoding="iso-8859-1"?>
<!-- Generator: Adobe Illustrator 18.0.0, SVG Export Plug-In . SVG Version: 6.00 Build 0)  -->
<!DOCTYPE svg PUBLIC "-//W3C//DTD SVG 1.1//EN" "http://www.w3.org/Graphics/SVG/1.1/DTD/svg11.dtd">
<svg version="1.1" id="Capa_1" xmlns="http://www.w3.org/2000/svg" xmlns:xlink="http://www.w3.org/1999/xlink" x="0px" y="0px"
	 viewBox="0 0 314.002 314.002" style="enable-background:new 0 0 314.002 314.002;" xml:space="preserve">
<g>
	<circle cx="150.558" cy="56.005" r="5.435"/>
	<circle cx="233.698" cy="56.004" r="5.436"/>
	<circle cx="145.59" cy="124.085" r="5.435"/>
	<circle cx="238.667" cy="124.085" r="5.435"/>
	<circle cx="140.155" cy="192.164" r="5.435"/>
	<circle cx="243.571" cy="192.164" r="5.435"/>
	<path d="M266.167,230.426h-12.608l-0.631-8.444h5.446c9.839,0,17.844-8.004,17.844-17.843V180.19
		c0-9.839-8.005-17.844-17.844-17.844h-9.909l-0.631-8.443h2.748c9.839,0,17.844-8.005,17.844-17.844V112.11
		c0-9.839-8.005-17.843-17.844-17.843h-7.211l-0.632-8.444h0.051c9.839,0,17.843-8.004,17.843-17.843V44.031
		c0-9.839-8.004-17.844-17.843-17.844h-4.512L236.805,6.48c-0.289-3.855-3.65-6.746-7.503-6.458
		c-3.854,0.288-6.746,3.648-6.458,7.503l1.395,18.662h-64.655l1.396-18.662c0.288-3.855-2.603-7.215-6.458-7.503
		c-3.856-0.304-7.214,2.603-7.503,6.458l-1.475,19.707h-4.51c-9.84,0-17.845,8.005-17.845,17.844V67.98
		c0,9.839,8.005,17.843,17.845,17.843h0.048l-0.632,8.444h-7.209c-9.839,0-17.844,8.004-17.844,17.843v23.949
		c0,9.839,8.005,17.844,17.844,17.844h2.748l-0.632,8.443h-9.909c-9.839,0-17.843,8.005-17.843,17.844v23.949
		c0,9.839,8.004,17.843,17.843,17.843h5.447l-0.633,8.444h-12.607c-9.838,0-17.842,8.005-17.842,17.844v23.949
		c0,9.839,8.004,17.843,17.842,17.843h8.147l-1.229,16.418c-0.288,3.855,2.604,7.215,6.458,7.503c0.178,0.014,0.355,0.02,0.53,0.02
		c3.628,0,6.697-2.801,6.973-6.478l1.307-17.463h104.138l1.307,17.463c0.275,3.678,3.345,6.478,6.973,6.478
		c0.176,0,0.353-0.006,0.53-0.02c3.855-0.288,6.746-3.647,6.458-7.503l-1.229-16.418h8.147c9.839,0,17.843-8.004,17.843-17.843
		V248.27C284.01,238.431,276.006,230.426,266.167,230.426z M137.191,67.98V44.031c0-2.119,1.725-3.844,3.845-3.844H242.79
		c2.119,0,3.843,1.725,3.843,3.844V67.98c0,2.119-1.724,3.843-3.843,3.843h-7.362c-0.056-0.002-0.111,0-0.166,0h-94.227
		C138.915,71.823,137.191,70.099,137.191,67.98z M155.122,85.823H228.7l0.632,8.444H154.49L155.122,85.823z M129.399,136.059V112.11
		c0-2.119,1.725-3.843,3.844-3.843h117.34c2.119,0,3.844,1.724,3.844,3.843v23.949c0,2.119-1.725,3.844-3.844,3.844h-117.34
		C131.123,139.903,129.399,138.178,129.399,136.059z M150.03,153.903h83.766l0.631,8.443h-85.028L150.03,153.903z M121.607,204.139
		V180.19c0-2.119,1.724-3.844,3.843-3.844h132.925c2.119,0,3.844,1.725,3.844,3.844v23.949c0,2.119-1.725,3.843-3.844,3.843H245.59
		c-0.02-0.001-0.038,0-0.058,0H138.266c-0.009,0-0.018,0-0.026,0h-12.79C123.33,207.982,121.607,206.258,121.607,204.139z
		 M144.936,221.982h93.953l0.631,8.444h-95.217L144.936,221.982z M270.01,272.219c0,2.119-1.724,3.843-3.843,3.843H117.656
		c-2.118,0-3.842-1.724-3.842-3.843V248.27c0-2.119,1.724-3.844,3.842-3.844h129.358c0.014,0,0.027,0.002,0.041,0.002
		c0.018,0,0.035-0.002,0.053-0.002h19.059c2.119,0,3.843,1.725,3.843,3.844V272.219z"/>
	<circle cx="135.018" cy="260.244" r="5.435"/>
	<circle cx="249.005" cy="260.244" r="5.435"/>
	<path d="M50.818,51.622c-11.483,0-20.825,9.342-20.825,20.824c0,9.024,5.78,16.704,13.825,19.588v165.947c0,3.866,3.134,7,7,7
		c3.866,0,7-3.134,7-7V92.034c8.044-2.885,13.824-10.564,13.824-19.588C71.642,60.964,62.3,51.622,50.818,51.622z M50.818,65.622
		c3.763,0,6.824,3.062,6.824,6.824c0,3.763-3.062,6.824-6.824,6.824c-3.764,0-6.825-3.062-6.825-6.824
		C43.992,68.684,47.054,65.622,50.818,65.622z"/>
</g>
<g>
</g>
<g>
</g>
<g>
</g>
<g>
</g>
<g>
</g>
<g>
</g>
<g>
</g>
<g>
</g>
<g>
</g>
<g>
</g>
<g>
</g>
<g>
</g>
<g>
</g>
<g>
</g>
<g>
</g>
</svg>
