<?xml version="1.0" encoding="iso-8859-1"?>
<!-- Generator: Adobe Illustrator 18.0.0, SVG Export Plug-In . SVG Version: 6.00 Build 0)  -->
<!DOCTYPE svg PUBLIC "-//W3C//DTD SVG 1.1//EN" "http://www.w3.org/Graphics/SVG/1.1/DTD/svg11.dtd">
<svg version="1.1" id="Capa_1" xmlns="http://www.w3.org/2000/svg" xmlns:xlink="http://www.w3.org/1999/xlink" x="0px" y="0px"
	 viewBox="0 0 313.997 313.997" style="enable-background:new 0 0 313.997 313.997;" xml:space="preserve">
<g>
	<path d="M131.676,166.654c2.059-5.961-0.008-11.913-5.026-14.475c-3.429-1.751-12.661-4.038-24.259,12.51
		c-1.896,2.704-3.503,4.475-4.762,5.63c-0.747-1.764-2.21-3.215-4.163-3.89c-3.658-1.261-7.64,0.681-8.901,4.333
		c-2.057,5.96,0.011,11.911,5.028,14.472c1.13,0.577,2.891,1.212,5.159,1.212c4.613,0,11.326-2.628,19.102-13.721
		c1.895-2.703,3.5-4.474,4.759-5.629c0.746,1.764,2.209,3.215,4.161,3.889C126.429,172.25,130.415,170.308,131.676,166.654z"/>
	<path d="M149.127,184.104c-3.654,1.262-5.594,5.247-4.331,8.901c0.674,1.952,2.125,3.415,3.888,4.161
		c-1.155,1.259-2.926,2.864-5.629,4.759c-16.548,11.6-14.26,20.832-12.508,24.263c1.898,3.718,5.656,5.815,9.899,5.815
		c1.484,0,3.028-0.257,4.572-0.79c3.654-1.263,5.593-5.248,4.33-8.902c-0.675-1.951-2.126-3.414-3.888-4.16
		c1.154-1.259,2.925-2.865,5.629-4.761c16.548-11.598,14.262-20.829,12.511-24.26C161.04,184.112,155.087,182.046,149.127,184.104z"
		/>
	<path d="M96.8,212.413c-3.25-3.249-7.571-5.038-12.167-5.038c-4.598,0-8.918,1.791-12.167,5.042
		c-0.246,0.246-0.473,0.51-0.68,0.789l-25.268,34.21c-2.607,2.986-3.124,7.222-1.363,11.472c2.506,6.05,9.695,12.527,16.405,12.527
		c2.46,0,4.759-0.847,6.546-2.398l34.216-25.271c0.28-0.207,0.545-0.435,0.791-0.681c6.709-6.707,6.711-17.623,0.003-24.337
		L96.8,212.413z M93.466,232.883l-32.467,23.979c-0.813-0.601-1.729-1.518-2.331-2.331l23.983-32.47
		c0.743-0.59,1.542-0.686,1.981-0.686c0.497,0,1.452,0.122,2.269,0.939l6.313,6.313C94.375,229.788,94.459,231.625,93.466,232.883z"
		/>
	<path d="M313.191,6.836c-0.413-3.142-2.886-5.615-6.028-6.028c-18.595-2.441-32.052,0.679-39.921,9.172
		c-2.229,2.404-3.712,4.934-4.702,7.309l-1.77-1.771c-2.733-2.733-7.166-2.733-9.899-0.001c-2.734,2.733-2.734,7.166-0.001,9.899
		l3.996,3.996c-1.486,1.375-3.141,2.906-4.946,4.577l-4.714-4.714c-2.732-2.732-7.165-2.733-9.899,0.001
		c-2.733,2.733-2.733,7.166,0.001,9.899l4.339,4.339c-12.637,11.733-28.425,26.451-42.067,39.35
		c-15.529-10.863-30.675-15.37-45.096-13.358c-15.235,2.129-28.924,11.389-40.687,27.524c-3.544,4.862-1.93,10.25-0.752,14.185
		c1.823,6.087,3.397,11.344-6.473,19.902c-14.9,12.923-18.552,12.214-25.179,10.925c-2.489-0.484-5.587-1.086-9.377-1.227
		c-0.119-0.005-0.241-0.007-0.368-0.007c-11.133,0-50.322,16.996-64.589,49.717c-15.339,35.182,7.109,68.235,28.643,89.769
		c16.58,16.579,39.986,33.702,65.938,33.7c7.754,0,15.738-1.529,23.832-5.058c33.095-14.43,50.102-54.354,49.71-64.96
		c-0.141-3.788-0.743-6.885-1.228-9.373c-1.289-6.627-1.999-10.277,10.925-25.181c8.558-9.867,13.814-8.294,19.9-6.472
		c3.938,1.178,9.325,2.79,14.188-0.753c16.136-11.762,25.396-25.449,27.523-40.685c2.015-14.417-2.493-29.564-13.356-45.093
		c12.898-13.643,27.616-29.431,39.35-42.068l4.389,4.387c1.367,1.366,3.158,2.05,4.949,2.05c1.792,0,3.583-0.684,4.95-2.051
		c2.733-2.734,2.733-7.166-0.001-9.899l-4.762-4.761c1.672-1.804,3.202-3.459,4.576-4.944l4.043,4.043
		c1.367,1.367,3.158,2.051,4.95,2.051c1.791,0,3.583-0.684,4.949-2.05c2.734-2.733,2.734-7.166,0.001-9.899l-1.835-1.835
		c3.003-1.246,6.264-3.273,9.169-6.586C312.975,36.75,315.441,23.958,313.191,6.836z M230.624,159.578
		c-1.55,11.096-8.646,21.425-21.099,30.713c-0.73-0.151-1.854-0.488-2.731-0.751c-6.991-2.093-20.008-5.99-34.492,10.712
		c-16.221,18.704-16.145,26.466-14.091,37.025c0.452,2.324,0.879,4.52,0.978,7.196c-0.001,5.62-14.676,40.607-42.162,51.99
		c-22.224,9.204-46.927,0.431-73.427-26.069c-26.501-26.5-35.272-51.204-26.07-73.426c11.383-27.486,46.371-42.161,51.968-42.163
		c2.702,0.101,4.897,0.527,7.222,0.979c10.563,2.055,18.321,2.13,37.022-14.09c16.705-14.486,12.807-27.503,10.713-34.496
		c-0.263-0.877-0.599-1.999-0.751-2.729c9.288-12.451,19.618-19.548,30.714-21.098c10.124-1.414,21.12,1.745,32.774,9.36
		c-5.627,5.379-10.485,10.088-14.039,13.642l-17.247,17.247c-3.251,3.252-5.041,7.573-5.041,12.169c0,4.597,1.791,8.918,5.04,12.164
		l10.137,10.138c3.249,3.25,7.569,5.04,12.166,5.04c4.596,0,8.916-1.79,12.166-5.039l17.25-17.249
		c3.553-3.554,8.262-8.41,13.64-14.036C228.879,138.461,232.038,149.46,230.624,159.578z M295.337,35.626
		c-3.089,3.521-7.074,3.757-8.043,3.763c-2.188-0.221-4.109,0.621-5.604,2.245c-0.627,0.68-62.923,68.266-83.966,89.311
		l-17.249,17.248c-0.817,0.817-1.771,0.939-2.268,0.939c-0.496,0-1.449-0.122-2.267-0.94l-10.137-10.137
		c-0.817-0.817-0.939-1.77-0.939-2.265c0-0.496,0.122-1.45,0.941-2.268l17.246-17.247c21.046-21.045,88.63-83.339,89.31-83.966
		c1.627-1.499,2.473-3.428,2.243-5.621c-0.008-0.549,0.061-4.241,3.05-7.347c3.909-4.061,11.621-5.889,22.203-5.198
		C300.678,26.53,297.958,32.639,295.337,35.626z"/>
</g>
<g>
</g>
<g>
</g>
<g>
</g>
<g>
</g>
<g>
</g>
<g>
</g>
<g>
</g>
<g>
</g>
<g>
</g>
<g>
</g>
<g>
</g>
<g>
</g>
<g>
</g>
<g>
</g>
<g>
</g>
</svg>
