<?xml version="1.0" encoding="iso-8859-1"?>
<!-- Generator: Adobe Illustrator 18.0.0, SVG Export Plug-In . SVG Version: 6.00 Build 0)  -->
<!DOCTYPE svg PUBLIC "-//W3C//DTD SVG 1.1//EN" "http://www.w3.org/Graphics/SVG/1.1/DTD/svg11.dtd">
<svg version="1.1" id="Capa_1" xmlns="http://www.w3.org/2000/svg" xmlns:xlink="http://www.w3.org/1999/xlink" x="0px" y="0px"
	 viewBox="0 0 314.001 314.001" style="enable-background:new 0 0 314.001 314.001;" xml:space="preserve">
<g>
	<g>
		<path d="M258.048,242.588H65.73c-7.819,0-14.112-3.133-17.267-8.596c-3.153-5.463-2.72-12.48,1.189-19.252l96.158-166.553
			c3.91-6.771,9.77-10.656,16.078-10.656s12.168,3.885,16.078,10.656l88.721,153.67c1.933,3.348,0.785,7.629-2.563,9.563
			c-3.35,1.932-7.63,0.786-9.563-2.563l-88.721-153.67c-1.458-2.525-3.036-3.656-3.953-3.656c-0.917,0-2.495,1.131-3.953,3.656
			L61.778,221.74c-1.459,2.525-1.648,4.458-1.189,5.252c0.458,0.794,2.226,1.596,5.142,1.596h192.318c3.866,0,7,3.134,7,7
			C265.048,239.454,261.914,242.588,258.048,242.588z"/>
	</g>
	<g>
		<path d="M161.888,50.986c-14.057,0-25.493-11.437-25.493-25.493C136.395,11.436,147.831,0,161.888,0
			c14.058,0,25.495,11.436,25.495,25.493C187.383,39.55,175.946,50.986,161.888,50.986z M161.888,14
			c-6.337,0-11.493,5.156-11.493,11.493s5.156,11.493,11.493,11.493c6.339,0,11.495-5.156,11.495-11.493S168.227,14,161.888,14z"/>
	</g>
	<g>
		<path d="M85.537,314.001c-1.217,0-2.448-0.317-3.57-0.983c-3.323-1.976-4.415-6.272-2.44-9.595l71.45-120.195
			c1.977-3.322,6.27-4.414,9.595-2.44c3.323,1.976,4.415,6.271,2.441,9.595l-71.45,120.195
			C90.252,312.778,87.925,314.001,85.537,314.001z"/>
	</g>
</g>
<g>
</g>
<g>
</g>
<g>
</g>
<g>
</g>
<g>
</g>
<g>
</g>
<g>
</g>
<g>
</g>
<g>
</g>
<g>
</g>
<g>
</g>
<g>
</g>
<g>
</g>
<g>
</g>
<g>
</g>
</svg>
