<?xml version="1.0" encoding="iso-8859-1"?>
<!-- Generator: Adobe Illustrator 18.0.0, SVG Export Plug-In . SVG Version: 6.00 Build 0)  -->
<!DOCTYPE svg PUBLIC "-//W3C//DTD SVG 1.1//EN" "http://www.w3.org/Graphics/SVG/1.1/DTD/svg11.dtd">
<svg version="1.1" id="Capa_1" xmlns="http://www.w3.org/2000/svg" xmlns:xlink="http://www.w3.org/1999/xlink" x="0px" y="0px"
	 viewBox="0 0 314 314" style="enable-background:new 0 0 314 314;" xml:space="preserve">
<g>
	<path d="M254.085,0H59.915C46.257,0,35.147,11.111,35.147,24.769v264.463c0,13.657,11.11,24.769,24.768,24.769h194.17
		c13.657,0,24.768-11.111,24.768-24.769V24.769C278.853,11.111,267.742,0,254.085,0z M264.853,289.231
		c0,5.938-4.831,10.769-10.768,10.769H59.915c-5.938,0-10.768-4.831-10.768-10.769V24.769c0-5.938,4.83-10.769,10.768-10.769h194.17
		c5.937,0,10.768,4.831,10.768,10.769V289.231z"/>
	<path d="M157,131.609c24.036,0,43.591-19.555,43.591-43.59c0-24.036-19.555-43.591-43.591-43.591
		c-24.036,0-43.591,19.555-43.591,43.591C113.409,112.055,132.963,131.609,157,131.609z M157,58.429
		c16.316,0,29.591,13.274,29.591,29.591c0,16.315-13.274,29.59-29.591,29.59s-29.591-13.274-29.591-29.59
		C127.409,71.703,140.683,58.429,157,58.429z"/>
	<path d="M157,148.101c-33.489,0-60.734,27.246-60.734,60.735c0,33.489,27.245,60.735,60.734,60.735s60.734-27.246,60.734-60.735
		C217.734,175.347,190.489,148.101,157,148.101z M157,255.571c-25.77,0-46.734-20.966-46.734-46.735
		c0-25.77,20.965-46.735,46.734-46.735c25.769,0,46.734,20.966,46.734,46.735C203.734,234.605,182.769,255.571,157,255.571z"/>
	<circle cx="157" cy="88.02" r="9.298"/>
	<circle cx="157" cy="209.146" r="9.298"/>
</g>
<g>
</g>
<g>
</g>
<g>
</g>
<g>
</g>
<g>
</g>
<g>
</g>
<g>
</g>
<g>
</g>
<g>
</g>
<g>
</g>
<g>
</g>
<g>
</g>
<g>
</g>
<g>
</g>
<g>
</g>
</svg>
