<?xml version="1.0" encoding="iso-8859-1"?>
<!-- Generator: Adobe Illustrator 18.0.0, SVG Export Plug-In . SVG Version: 6.00 Build 0)  -->
<!DOCTYPE svg PUBLIC "-//W3C//DTD SVG 1.1//EN" "http://www.w3.org/Graphics/SVG/1.1/DTD/svg11.dtd">
<svg version="1.1" id="Capa_1" xmlns="http://www.w3.org/2000/svg" xmlns:xlink="http://www.w3.org/1999/xlink" x="0px" y="0px"
	 viewBox="0 0 314 314" style="enable-background:new 0 0 314 314;" xml:space="preserve">
<path d="M240.206,103.546c-23.505-1.487-39.148-16.783-44.226-31.281C180.96,29.356,143.203,1.631,99.789,1.631
	c-26.011,0-50.57,9.463-69.152,26.644C12.061,45.449,1.222,68.693,0.119,93.724c-0.004,0.102-0.007,0.202-0.007,0.303L0,238.399
	c-0.001,1.858,0.735,3.64,2.048,4.954c1.081,1.082,2.482,1.766,3.979,1.976v60.04c0,3.866,3.134,7,7,7h287.945c3.866,0,7-3.134,7-7
	v-60.153c3.075-0.708,5.382-3.437,5.425-6.725c0.007-0.461,0.603-47.226,0.603-64.135C314,136.651,282.275,106.21,240.206,103.546z
	 M14.112,94.192c0.976-21.264,10.216-41.019,26.028-55.638c15.988-14.782,37.171-22.924,59.648-22.924
	c37.38,0,69.951,24.046,82.978,61.26c6.604,18.859,26.651,38.735,56.554,40.628C273.914,119.708,300,144.144,300,174.356
	c0,12.896-0.35,43.331-0.516,57.044l-285.479,0.005L14.112,94.192z M293.973,298.369H20.027v-52.964h12.321v30.332
	c0,3.866,3.134,7,7,7s7-3.134,7-7v-30.332h7.022v30.332c0,3.866,3.134,7,7,7s7-3.134,7-7v-30.332h7.023v30.332c0,3.866,3.134,7,7,7
	c3.866,0,7-3.134,7-7v-30.332h19.657v30.332c0,3.866,3.134,7,7,7c3.866,0,7-3.134,7-7v-30.332h7.022v30.332c0,3.866,3.134,7,7,7
	s7-3.134,7-7v-30.332h22.8v30.332c0,3.866,3.134,7,7,7c3.866,0,7-3.134,7-7v-30.332h7.024v30.332c0,3.866,3.134,7,7,7
	c3.866,0,7-3.134,7-7v-30.332h7.023v30.332c0,3.866,3.134,7,7,7s7-3.134,7-7v-30.332h21.445v30.332c0,3.866,3.134,7,7,7s7-3.134,7-7
	v-30.332h7.023v30.332c0,3.866,3.134,7,7,7c3.866,0,7-3.134,7-7v-30.332h15.584V298.369z"/>
<g>
</g>
<g>
</g>
<g>
</g>
<g>
</g>
<g>
</g>
<g>
</g>
<g>
</g>
<g>
</g>
<g>
</g>
<g>
</g>
<g>
</g>
<g>
</g>
<g>
</g>
<g>
</g>
<g>
</g>
</svg>
