<?xml version="1.0" encoding="iso-8859-1"?>
<!-- Generator: Adobe Illustrator 18.0.0, SVG Export Plug-In . SVG Version: 6.00 Build 0)  -->
<!DOCTYPE svg PUBLIC "-//W3C//DTD SVG 1.1//EN" "http://www.w3.org/Graphics/SVG/1.1/DTD/svg11.dtd">
<svg version="1.1" id="Capa_1" xmlns="http://www.w3.org/2000/svg" xmlns:xlink="http://www.w3.org/1999/xlink" x="0px" y="0px"
	 viewBox="0 0 314 314" style="enable-background:new 0 0 314 314;" xml:space="preserve">
<path d="M303.233,195.888c-1.771-32.868-20.519-56.501-38.648-79.355c-13.322-16.795-26.102-32.916-32.093-52.154h9.534
	c3.866,0,7-3.134,7-7s-3.134-7-7-7h-12.533c-0.355-2.987-0.553-6.051-0.553-9.213c0-9.092,2.391-16.436,6.913-21.237
	C239.454,16.105,244.289,14,249.47,14c7.057,0,14.651,4.181,14.651,13.358c0,3.866,3.134,7,7,7c3.866,0,7-3.134,7-7
	C278.121,11.762,265.804,0,249.47,0c-16.63,0-34.529,12.882-34.529,41.165c0,3.153,0.163,6.22,0.463,9.213H98.599
	c0.3-2.993,0.463-6.059,0.463-9.213C99.061,12.882,81.162,0,64.531,0C48.197,0,35.88,11.762,35.88,27.358c0,3.866,3.134,7,7,7
	s7-3.134,7-7C49.88,18.181,57.475,14,64.531,14c5.181,0,10.017,2.105,13.617,5.928c4.522,4.802,6.913,12.146,6.913,21.237
	c0,3.162-0.197,6.226-0.553,9.213H71.974c-3.866,0-7,3.134-7,7s3.134,7,7,7h9.536c-5.991,19.237-18.771,35.358-32.094,52.153
	c-18.131,22.854-36.879,46.487-38.649,79.356c-1.389,25.806,8.067,50.199,27.347,70.544C51.775,280.85,69.337,292.21,89.433,300
	h-8.659c-3.866,0-7,3.134-7,7s3.134,7,7,7h152.453c3.866,0,7-3.134,7-7s-3.134-7-7-7h-8.657c20.096-7.79,37.656-19.15,51.318-33.568
	C295.167,246.087,304.623,221.693,303.233,195.888z M135.062,296.8c-5.386-0.653-10.687-1.544-15.877-2.663V64.378h15.877V296.8z
	 M149.062,64.378h15.876v233.579c-2.633,0.114-5.279,0.174-7.938,0.174s-5.305-0.06-7.938-0.174V64.378z M178.938,296.8V64.378
	h15.876v229.759C189.624,295.256,184.324,296.147,178.938,296.8z M48.275,256.802c-16.57-17.485-24.706-38.289-23.528-60.162
	c1.529-28.414,18.097-49.298,35.637-71.407c14.559-18.352,29.486-37.188,35.688-60.854h9.113v226.108
	C82.466,283.489,62.612,271.932,48.275,256.802z M265.726,256.802c-14.338,15.131-34.191,26.688-56.911,33.686V64.378h9.115
	c6.202,23.667,21.129,42.503,35.688,60.854c17.539,22.109,34.106,42.993,35.636,71.407
	C290.431,218.513,282.296,239.316,265.726,256.802z"/>
<g>
</g>
<g>
</g>
<g>
</g>
<g>
</g>
<g>
</g>
<g>
</g>
<g>
</g>
<g>
</g>
<g>
</g>
<g>
</g>
<g>
</g>
<g>
</g>
<g>
</g>
<g>
</g>
<g>
</g>
</svg>
