<?xml version="1.0" encoding="iso-8859-1"?>
<!-- Generator: Adobe Illustrator 18.0.0, SVG Export Plug-In . SVG Version: 6.00 Build 0)  -->
<!DOCTYPE svg PUBLIC "-//W3C//DTD SVG 1.1//EN" "http://www.w3.org/Graphics/SVG/1.1/DTD/svg11.dtd">
<svg version="1.1" id="Capa_1" xmlns="http://www.w3.org/2000/svg" xmlns:xlink="http://www.w3.org/1999/xlink" x="0px" y="0px"
	 viewBox="0 0 314.016 314.016" style="enable-background:new 0 0 314.016 314.016;" xml:space="preserve">
<path d="M308.686,247.375l-61.875-15.219l-52.25-86.795c8.869-7.921,14.017-20.037,14.64-34.889
	c0.699-16.703-4.448-35.095-14.496-51.786c-15.673-26.033-40.305-42.855-62.753-42.855c-7.439,0-14.257,1.834-20.262,5.449
	c-12.338,7.427-19.543,21.306-20.287,39.079c-0.699,16.704,4.449,35.095,14.498,51.786C121.572,138.179,146.204,155,168.653,155
	c4.932,0,9.583-0.823,13.913-2.42l45.064,74.858l-80.136-19.71c0.644-11.875-4.312-24.07-14.399-34.99
	c-11.344-12.279-28.011-21.604-46.931-26.259c-8.457-2.08-16.98-3.135-25.334-3.135c-30.498,0-54.505,14.299-59.74,35.581
	c-3.438,13.984,1.315,28.882,13.388,41.948c11.344,12.28,28.011,21.605,46.93,26.26c8.457,2.08,16.981,3.135,25.336,3.135
	c27.206,0,49.233-11.385,57.39-28.948l93.686,23.043l30.359,50.432c1.313,2.183,3.629,3.391,6.004,3.391
	c1.228,0,2.474-0.324,3.603-1.004c3.313-1.994,4.381-6.295,2.387-9.607L257,249.08l48.343,11.891
	c0.562,0.138,1.124,0.204,1.678,0.204c3.146,0,6.006-2.138,6.792-5.33C314.735,252.091,312.44,248.299,308.686,247.375z
	 M105.39,60.945c0.541-12.921,5.343-22.748,13.52-27.671c3.795-2.284,8.183-3.443,13.041-3.443
	c14.886,0,31.991,10.653,44.756,27.279c-2.442,3.081-3.462,6.277-4.277,8.857c-0.999,3.16-1.455,4.603-3.989,6.129
	c-2.534,1.523-4.021,1.25-7.278,0.656c-4.202-0.77-9.955-1.822-17.021,2.433c-7.069,4.255-8.831,9.832-10.117,13.904
	c-0.998,3.16-1.453,4.602-3.985,6.127c-2.532,1.523-4.021,1.251-7.278,0.654c-2.663-0.488-5.97-1.084-9.842-0.363
	C107.581,83.912,104.93,71.929,105.39,60.945z M121.036,109.786c4.117,0.734,9.592,1.416,16.223-2.575
	c7.068-4.255,8.83-9.832,10.116-13.904c0.997-3.159,1.453-4.601,3.986-6.126c2.535-1.526,4.021-1.254,7.281-0.657
	c4.2,0.77,9.953,1.82,17.02-2.433c6.633-3.994,8.594-9.15,9.874-13.136c14.069,27.013,12.686,56.652-3.843,66.603
	c-3.795,2.284-8.182,3.442-13.04,3.442C152.623,141,134.02,128.649,121.036,109.786z M14.686,182.269
	c3.666-14.908,22.211-24.925,46.144-24.925c3.804,0,7.654,0.262,11.523,0.767c0.459,3.913,2.008,6.896,3.262,9.294
	c1.535,2.936,2.235,4.276,1.53,7.146c-0.707,2.872-1.95,3.734-4.673,5.624c-3.508,2.434-8.314,5.77-10.283,13.781
	c-1.971,8.01,0.739,13.193,2.718,16.978c1.535,2.936,2.236,4.276,1.529,7.146c-0.705,2.87-1.947,3.732-4.669,5.62
	c-2.216,1.537-4.967,3.457-7.187,6.7C28.035,220.546,10.326,199.998,14.686,182.269z M86.744,236.268
	c-5.382,0-10.858-0.511-16.345-1.518c3.43-2.402,7.781-5.8,9.632-13.324c1.971-8.01-0.739-13.193-2.718-16.978
	c-1.535-2.936-2.236-4.277-1.529-7.147c0.706-2.872,1.948-3.734,4.671-5.624c3.508-2.434,8.313-5.768,10.285-13.78
	c1.85-7.523-0.428-12.552-2.351-16.271c13.941,4.315,26.02,11.518,34.423,20.612c8.776,9.5,12.354,19.837,10.073,29.106
	C129.221,226.253,110.678,236.268,86.744,236.268z"/>
<g>
</g>
<g>
</g>
<g>
</g>
<g>
</g>
<g>
</g>
<g>
</g>
<g>
</g>
<g>
</g>
<g>
</g>
<g>
</g>
<g>
</g>
<g>
</g>
<g>
</g>
<g>
</g>
<g>
</g>
</svg>
