<?xml version="1.0" encoding="iso-8859-1"?>
<!-- Generator: Adobe Illustrator 18.0.0, SVG Export Plug-In . SVG Version: 6.00 Build 0)  -->
<!DOCTYPE svg PUBLIC "-//W3C//DTD SVG 1.1//EN" "http://www.w3.org/Graphics/SVG/1.1/DTD/svg11.dtd">
<svg version="1.1" id="Capa_1" xmlns="http://www.w3.org/2000/svg" xmlns:xlink="http://www.w3.org/1999/xlink" x="0px" y="0px"
	 viewBox="0 0 314 314" style="enable-background:new 0 0 314 314;" xml:space="preserve">
<path d="M307,27.527h-49.655h-42.582h-36.471h-42.584H99.237H56.655H7c-3.866,0-7,3.134-7,7v244.945c0,3.866,3.134,7,7,7h300
	c3.866,0,7-3.134,7-7V34.527C314,30.661,310.866,27.527,307,27.527z M250.345,41.527v133.296h-28.582V41.527H250.345z
	 M99.237,188.823c3.866,0,7-3.134,7-7V41.527h22.471v140.296c0,3.866,3.134,7,7,7H150v83.649H84.946v-83.649H99.237z M164,188.823
	h14.292c3.866,0,7-3.134,7-7V41.527h22.471v140.296c0,3.866,3.134,7,7,7h14.291v83.649H164V188.823z M171.292,41.527v133.296
	h-28.584V41.527H171.292z M92.237,41.527v133.296H63.655V41.527H92.237z M14,41.527h35.655v140.296c0,3.866,3.134,7,7,7h14.291
	v83.649H14V41.527z M300,272.473h-56.946v-83.649h14.291c3.866,0,7-3.134,7-7V41.527H300V272.473z"/>
<g>
</g>
<g>
</g>
<g>
</g>
<g>
</g>
<g>
</g>
<g>
</g>
<g>
</g>
<g>
</g>
<g>
</g>
<g>
</g>
<g>
</g>
<g>
</g>
<g>
</g>
<g>
</g>
<g>
</g>
</svg>
