<?xml version="1.0" encoding="iso-8859-1"?>
<!-- Generator: Adobe Illustrator 18.0.0, SVG Export Plug-In . SVG Version: 6.00 Build 0)  -->
<!DOCTYPE svg PUBLIC "-//W3C//DTD SVG 1.1//EN" "http://www.w3.org/Graphics/SVG/1.1/DTD/svg11.dtd">
<svg version="1.1" id="Capa_1" xmlns="http://www.w3.org/2000/svg" xmlns:xlink="http://www.w3.org/1999/xlink" x="0px" y="0px"
	 viewBox="0 0 314.001 314.001" style="enable-background:new 0 0 314.001 314.001;" xml:space="preserve">
<path d="M258.534,78.304c-26.166-11.743-60.801-18.21-97.524-18.21c-11.615,0-23.019,0.651-34.014,1.907L79.547,2.631
	c-2.413-3.021-6.818-3.513-9.838-1.098c-3.021,2.413-3.512,6.818-1.098,9.838l42.328,52.963
	c-15.841,2.785-30.526,6.897-43.37,12.224L23.405,42.413c-3.058-2.364-7.454-1.802-9.819,1.257
	c-2.364,3.059-1.802,7.455,1.257,9.819L53.43,83.322c-21.562,11.97-33.288,27.294-33.288,43.848v119.753
	c0,18.969,15.393,36.323,43.343,48.867c26.166,11.743,60.801,18.211,97.524,18.211s71.358-6.468,97.525-18.211
	c27.95-12.544,43.343-29.898,43.343-48.867V127.17C301.878,108.201,286.485,90.847,258.534,78.304z M65.632,92.756l56.658,43.803
	c1.275,0.985,2.781,1.462,4.276,1.462c2.093,0,4.164-0.934,5.543-2.719c2.364-3.059,1.802-7.455-1.257-9.819L80.529,86.576
	c12.156-4.318,25.824-7.579,40.449-9.683l32.424,40.571c1.382,1.73,3.418,2.63,5.473,2.63c1.532,0,3.075-0.501,4.365-1.532
	c3.02-2.413,3.512-6.818,1.098-9.838l-26.91-33.672c7.698-0.625,15.578-0.959,23.582-0.959c34.791,0,67.39,6.031,91.793,16.982
	c22.291,10.004,35.075,23.159,35.075,36.094c0,12.936-12.784,26.092-35.075,36.096c-24.402,10.951-57.002,16.982-91.793,16.982
	s-67.391-6.031-91.793-16.982c-22.29-10.004-35.074-23.16-35.074-36.096C34.142,114.946,45.565,102.527,65.632,92.756z
	 M252.802,283.018c-24.403,10.952-57.003,16.983-91.793,16.983c-34.791,0-67.39-6.031-91.793-16.983
	c-22.29-10.004-35.074-23.16-35.074-36.095v-47.098c27.79,19.648,74.68,31.495,126.867,31.495c51.492,0,99.1-12.106,126.868-31.563
	v47.165C287.878,259.857,275.093,273.014,252.802,283.018z M287.878,181.795c-22.721,21.627-72.142,35.525-126.868,35.525
	c-54.561,0-104.133-13.92-126.867-35.527v-24.821c7.193,7.104,17.053,13.551,29.343,19.066c26.165,11.743,60.801,18.21,97.524,18.21
	s71.358-6.467,97.524-18.21c12.291-5.516,22.15-11.963,29.344-19.066V181.795z"/>
<g>
</g>
<g>
</g>
<g>
</g>
<g>
</g>
<g>
</g>
<g>
</g>
<g>
</g>
<g>
</g>
<g>
</g>
<g>
</g>
<g>
</g>
<g>
</g>
<g>
</g>
<g>
</g>
<g>
</g>
</svg>
