<?xml version="1.0" encoding="iso-8859-1"?>
<!-- Generator: Adobe Illustrator 18.0.0, SVG Export Plug-In . SVG Version: 6.00 Build 0)  -->
<!DOCTYPE svg PUBLIC "-//W3C//DTD SVG 1.1//EN" "http://www.w3.org/Graphics/SVG/1.1/DTD/svg11.dtd">
<svg version="1.1" id="Capa_1" xmlns="http://www.w3.org/2000/svg" xmlns:xlink="http://www.w3.org/1999/xlink" x="0px" y="0px"
	 viewBox="0 0 313.994 313.994" style="enable-background:new 0 0 313.994 313.994;" xml:space="preserve">
<path d="M305.543,49.056l4.167-3.453c0.169-0.14,0.33-0.287,0.485-0.442c5.065-5.067,5.064-13.313-0.002-18.379L287.216,3.804
	c-2.455-2.452-5.718-3.802-9.186-3.802c-3.471,0-6.733,1.351-9.188,3.803c-0.155,0.155-0.303,0.317-0.443,0.486l-3.454,4.169
	l-2.803-2.804c-2.733-2.732-7.164-2.733-9.899-0.001c-2.734,2.733-2.734,7.165-0.001,9.899l3.732,3.732l-2.55,3.077l-3.553-3.551
	c-2.733-2.733-7.166-2.732-9.899,0.003c-2.732,2.734-2.731,7.166,0.003,9.899l4.479,4.476l-2.873,3.468
	c-2.12,2.236-3.44,5.067-3.729,8.015c-0.126,1.285-0.044,2.552,0.22,3.761L122.894,163.606c-12.507-7.581-26.88-11.637-41.88-11.637
	c-21.64,0-41.984,8.428-57.285,23.729C8.427,190.999,0,211.343,0,232.981c0,21.639,8.427,41.981,23.729,57.283
	c15.302,15.301,35.646,23.728,57.286,23.728c21.639,0,41.982-8.427,57.282-23.727c15.303-15.302,23.73-35.646,23.729-57.285
	c0-14.999-4.056-29.371-11.637-41.877L265.57,75.928c0.823,0.179,1.672,0.279,2.542,0.279c3.34,0,6.681-1.375,9.227-3.785
	l3.468-2.873l4.478,4.477c1.367,1.366,3.159,2.05,4.95,2.05c1.791,0,3.583-0.684,4.95-2.05c2.733-2.734,2.733-7.166,0-9.9
	l-3.548-3.549l3.077-2.549l3.73,3.73c1.367,1.366,3.159,2.05,4.95,2.05c1.791,0,3.583-0.684,4.95-2.05
	c2.733-2.734,2.733-7.166,0-9.9L305.543,49.056z M278.117,14.504l21.379,21.38L268.468,61.59l-16.059-16.059L278.117,14.504z
	 M148.026,232.98c0,17.899-6.971,34.727-19.629,47.386c-12.655,12.656-29.483,19.626-47.383,19.626
	c-17.9,0-34.73-6.971-47.388-19.628C20.97,267.708,14,250.88,14,232.981c0-17.899,6.97-34.727,19.628-47.383
	c12.657-12.658,29.485-19.629,47.386-19.629c11.216,0,22.01,2.738,31.621,7.896l-49.77,49.767l-5.321-5.321
	c-2.734-2.732-7.166-2.732-9.9,0c-2.733,2.734-2.733,7.166,0,9.9l5.321,5.321l-9.623,9.622c-2.734,2.734-2.734,7.166-0.001,9.899
	c1.367,1.367,3.158,2.051,4.95,2.051c1.791,0,3.583-0.684,4.949-2.05l9.624-9.623l7.697,7.697l-9.622,9.622
	c-2.734,2.734-2.734,7.166-0.001,9.899c1.367,1.367,3.158,2.051,4.95,2.051c1.791,0,3.583-0.684,4.949-2.05l9.623-9.623l5.321,5.321
	c1.367,1.366,3.159,2.05,4.95,2.05c1.791,0,3.583-0.684,4.95-2.05c2.733-2.734,2.733-7.166,0-9.9l-5.321-5.321l49.77-49.767
	C145.288,210.973,148.026,221.766,148.026,232.98z M128.398,185.598c1.293,1.293,2.51,2.639,3.683,4.016l-51.619,51.616
	l-7.697-7.697l51.619-51.617C125.76,183.088,127.105,184.306,128.398,185.598z M138.298,175.698c-1.291-1.291-2.63-2.515-3.99-3.706
	l112.384-112.38l7.697,7.697l-112.384,112.38C140.813,178.329,139.589,176.989,138.298,175.698z"/>
<g>
</g>
<g>
</g>
<g>
</g>
<g>
</g>
<g>
</g>
<g>
</g>
<g>
</g>
<g>
</g>
<g>
</g>
<g>
</g>
<g>
</g>
<g>
</g>
<g>
</g>
<g>
</g>
<g>
</g>
</svg>
