<?xml version="1.0" encoding="iso-8859-1"?>
<!-- Generator: Adobe Illustrator 18.0.0, SVG Export Plug-In . SVG Version: 6.00 Build 0)  -->
<!DOCTYPE svg PUBLIC "-//W3C//DTD SVG 1.1//EN" "http://www.w3.org/Graphics/SVG/1.1/DTD/svg11.dtd">
<svg version="1.1" id="Capa_1" xmlns="http://www.w3.org/2000/svg" xmlns:xlink="http://www.w3.org/1999/xlink" x="0px" y="0px"
	 viewBox="0 0 314 314" style="enable-background:new 0 0 314 314;" xml:space="preserve">
<g>
	<path d="M54.368,260.924H7c-3.866,0-7,3.134-7,7s3.134,7,7,7h47.368c3.866,0,7-3.134,7-7S58.234,260.924,54.368,260.924z"/>
	<path d="M54.368,229.23H7c-3.866,0-7,3.134-7,7s3.134,7,7,7h47.368c3.866,0,7-3.134,7-7S58.234,229.23,54.368,229.23z"/>
	<path d="M54.368,197.538H7c-3.866,0-7,3.134-7,7s3.134,7,7,7h47.368c3.866,0,7-3.134,7-7S58.234,197.538,54.368,197.538z"/>
	<path d="M54.368,165.846H7c-3.866,0-7,3.134-7,7s3.134,7,7,7h47.368c3.866,0,7-3.134,7-7S58.234,165.846,54.368,165.846z"/>
	<path d="M54.368,134.153H7c-3.866,0-7,3.134-7,7c0,3.866,3.134,7,7,7h47.368c3.866,0,7-3.134,7-7
		C61.368,137.287,58.234,134.153,54.368,134.153z"/>
	<path d="M54.368,102.461H7c-3.866,0-7,3.134-7,7c0,3.866,3.134,7,7,7h47.368c3.866,0,7-3.134,7-7
		C61.368,105.595,58.234,102.461,54.368,102.461z"/>
	<path d="M54.368,70.77H7c-3.866,0-7,3.134-7,7c0,3.866,3.134,7,7,7h47.368c3.866,0,7-3.134,7-7
		C61.368,73.903,58.234,70.77,54.368,70.77z"/>
	<path d="M54.368,39.076H7c-3.866,0-7,3.134-7,7s3.134,7,7,7h47.368c3.866,0,7-3.134,7-7S58.234,39.076,54.368,39.076z"/>
	<path d="M138.578,260.924H91.21c-3.866,0-7,3.134-7,7s3.134,7,7,7h47.368c3.866,0,7-3.134,7-7S142.444,260.924,138.578,260.924z"/>
	<path d="M138.578,229.23H91.21c-3.866,0-7,3.134-7,7s3.134,7,7,7h47.368c3.866,0,7-3.134,7-7S142.444,229.23,138.578,229.23z"/>
	<path d="M138.578,197.538H91.21c-3.866,0-7,3.134-7,7s3.134,7,7,7h47.368c3.866,0,7-3.134,7-7S142.444,197.538,138.578,197.538z"/>
	<path d="M138.578,165.846H91.21c-3.866,0-7,3.134-7,7s3.134,7,7,7h47.368c3.866,0,7-3.134,7-7S142.444,165.846,138.578,165.846z"/>
	<path d="M138.578,134.153H91.21c-3.866,0-7,3.134-7,7c0,3.866,3.134,7,7,7h47.368c3.866,0,7-3.134,7-7
		C145.578,137.287,142.444,134.153,138.578,134.153z"/>
	<path d="M222.789,260.924h-47.368c-3.866,0-7,3.134-7,7s3.134,7,7,7h47.368c3.866,0,7-3.134,7-7S226.655,260.924,222.789,260.924z"
		/>
	<path d="M222.789,229.23h-47.368c-3.866,0-7,3.134-7,7s3.134,7,7,7h47.368c3.866,0,7-3.134,7-7S226.655,229.23,222.789,229.23z"/>
	<path d="M307,260.924h-47.368c-3.866,0-7,3.134-7,7s3.134,7,7,7H307c3.866,0,7-3.134,7-7S310.866,260.924,307,260.924z"/>
	<path d="M307,229.23h-47.368c-3.866,0-7,3.134-7,7s3.134,7,7,7H307c3.866,0,7-3.134,7-7S310.866,229.23,307,229.23z"/>
	<path d="M307,197.538h-47.368c-3.866,0-7,3.134-7,7s3.134,7,7,7H307c3.866,0,7-3.134,7-7S310.866,197.538,307,197.538z"/>
	<path d="M307,165.846h-47.368c-3.866,0-7,3.134-7,7s3.134,7,7,7H307c3.866,0,7-3.134,7-7S310.866,165.846,307,165.846z"/>
	<path d="M307,134.153h-47.368c-3.866,0-7,3.134-7,7c0,3.866,3.134,7,7,7H307c3.866,0,7-3.134,7-7
		C314,137.287,310.866,134.153,307,134.153z"/>
	<path d="M307,102.461h-47.368c-3.866,0-7,3.134-7,7c0,3.866,3.134,7,7,7H307c3.866,0,7-3.134,7-7
		C314,105.595,310.866,102.461,307,102.461z"/>
	<path d="M307,70.77h-47.368c-3.866,0-7,3.134-7,7c0,3.866,3.134,7,7,7H307c3.866,0,7-3.134,7-7C314,73.903,310.866,70.77,307,70.77
		z"/>
	<path d="M259.632,53.076H307c3.866,0,7-3.134,7-7s-3.134-7-7-7h-47.368c-3.866,0-7,3.134-7,7S255.766,53.076,259.632,53.076z"/>
</g>
<g>
</g>
<g>
</g>
<g>
</g>
<g>
</g>
<g>
</g>
<g>
</g>
<g>
</g>
<g>
</g>
<g>
</g>
<g>
</g>
<g>
</g>
<g>
</g>
<g>
</g>
<g>
</g>
<g>
</g>
</svg>
