<?xml version="1.0" encoding="iso-8859-1"?>
<!-- Generator: Adobe Illustrator 18.0.0, SVG Export Plug-In . SVG Version: 6.00 Build 0)  -->
<!DOCTYPE svg PUBLIC "-//W3C//DTD SVG 1.1//EN" "http://www.w3.org/Graphics/SVG/1.1/DTD/svg11.dtd">
<svg version="1.1" id="Capa_1" xmlns="http://www.w3.org/2000/svg" xmlns:xlink="http://www.w3.org/1999/xlink" x="0px" y="0px"
	 viewBox="0 0 314 314" style="enable-background:new 0 0 314 314;" xml:space="preserve">
<path d="M239.542,256.304c-0.68-0.821-1.405-1.673-2.167-2.566c-8.114-9.514-20.378-23.892-20.378-61.553
	c0-12.689-1.849-30.994-10.653-46.14c-7.978-13.723-20.322-22.31-36.093-25.317c1.224-7.121,4.091-16.931,7.085-27.175
	c8.828-30.194,18.833-64.418,5.31-82.462C177.129,3.731,168.501,0,157.001,0s-20.128,3.731-25.645,11.091
	c-13.523,18.044-3.518,52.268,5.31,82.462c2.994,10.244,5.861,20.054,7.085,27.175c-15.771,3.008-28.115,11.595-36.095,25.317
	c-8.806,15.145-10.654,33.451-10.654,46.14c0,37.661-12.263,52.039-20.378,61.554c-0.761,0.893-1.487,1.744-2.166,2.566
	c-6.239,7.553-8.125,14.096-5.605,19.447c2.334,4.954,7.658,7.466,15.826,7.466h35.199C123.172,300.717,138.56,314,157.001,314
	c18.44,0,33.828-13.283,37.121-30.782h35.198c8.168,0,13.492-2.512,15.826-7.466C247.667,270.4,245.781,263.857,239.542,256.304z
	 M142.56,19.487c2.768-3.692,7.491-5.487,14.441-5.487c6.95,0,11.674,1.795,14.441,5.487c9.324,12.44-0.425,45.788-7.544,70.137
	c-2.819,9.644-5.395,18.452-6.897,25.853c-1.503-7.4-4.078-16.209-6.898-25.853C142.984,65.275,133.235,31.928,142.56,19.487z
	 M157.001,300c-10.679,0-19.734-7.074-22.731-16.782h45.459C176.733,292.926,167.679,300,157.001,300z M229.32,269.218H84.68
	c-0.889,0-1.603-0.042-2.169-0.102c0.502-0.916,1.341-2.201,2.74-3.895c0.635-0.769,1.313-1.564,2.025-2.398
	c8.873-10.404,23.726-27.817,23.726-70.639c0-10.967,1.519-26.653,8.758-39.103c7.66-13.176,19.842-19.58,37.241-19.58
	c17.399,0,29.58,6.404,37.24,19.579c7.236,12.449,8.756,28.136,8.756,39.104c0,42.82,14.852,60.233,23.727,70.639
	c0.712,0.834,1.391,1.63,2.025,2.397c1.398,1.694,2.238,2.979,2.74,3.896C230.923,269.176,230.209,269.218,229.32,269.218z"/>
<g>
</g>
<g>
</g>
<g>
</g>
<g>
</g>
<g>
</g>
<g>
</g>
<g>
</g>
<g>
</g>
<g>
</g>
<g>
</g>
<g>
</g>
<g>
</g>
<g>
</g>
<g>
</g>
<g>
</g>
</svg>
