<?xml version="1.0" encoding="iso-8859-1"?>
<!-- Generator: Adobe Illustrator 18.0.0, SVG Export Plug-In . SVG Version: 6.00 Build 0)  -->
<!DOCTYPE svg PUBLIC "-//W3C//DTD SVG 1.1//EN" "http://www.w3.org/Graphics/SVG/1.1/DTD/svg11.dtd">
<svg version="1.1" id="Capa_1" xmlns="http://www.w3.org/2000/svg" xmlns:xlink="http://www.w3.org/1999/xlink" x="0px" y="0px"
	 viewBox="0 0 313.999 313.999" style="enable-background:new 0 0 313.999 313.999;" xml:space="preserve">
<g>
	<path d="M136.138,150.214c-7.386,0-14.33,2.876-19.552,8.099c-5.224,5.222-8.1,12.166-8.1,19.553c0,7.386,2.876,14.33,8.099,19.551
		c5.223,5.224,12.167,8.1,19.553,8.1c7.386,0,14.33-2.876,19.552-8.099c5.224-5.222,8.1-12.166,8.1-19.552
		c0-7.387-2.876-14.331-8.099-19.552C150.468,153.09,143.524,150.214,136.138,150.214z M145.79,187.518
		c-2.578,2.578-6.006,3.998-9.652,3.998s-7.074-1.42-9.653-3.999c-2.578-2.578-3.998-6.006-3.998-9.651
		c0-3.646,1.42-7.074,3.999-9.653c2.578-2.578,6.006-3.998,9.652-3.998s7.074,1.42,9.653,3.999c2.578,2.578,3.998,6.006,3.998,9.652
		C149.789,181.511,148.369,184.939,145.79,187.518z"/>
	<path d="M64.993,210.843c-2.734-2.732-7.166-2.732-9.9,0c-2.733,2.734-2.733,7.166,0,9.9l38.166,38.166
		c1.367,1.366,3.159,2.05,4.95,2.05s3.583-0.684,4.95-2.05c2.733-2.734,2.733-7.166,0-9.9L64.993,210.843z"/>
	<path d="M305.537,49.082l4.175-3.459c0.168-0.14,0.33-0.286,0.484-0.44c5.068-5.069,5.068-13.316,0-18.386L287.203,3.804
		C284.748,1.351,281.485,0,278.013,0c-3.471,0-6.734,1.351-9.19,3.804c-0.155,0.155-0.303,0.317-0.443,0.486l-3.46,4.176
		l-2.809-2.809c-2.733-2.732-7.166-2.733-9.899-0.001c-2.734,2.733-2.734,7.166-0.001,9.899l3.737,3.738l-2.558,3.087l-3.558-3.557
		c-2.734-2.733-7.167-2.732-9.899,0.001c-2.733,2.734-2.733,7.166,0.001,9.899l4.484,4.483l-2.878,3.474
		c-2.121,2.237-3.442,5.07-3.73,8.019c-0.125,1.284-0.043,2.551,0.221,3.759l-69.355,69.357c-9.737-5.724-20.262-8.854-30.455-8.854
		c-0.465,0-0.928,0.007-1.385,0.02c-14.727,0.418-28.383,6.51-39.493,17.618c-5.339,5.34-9.256,12.201-11.643,20.395
		c-1.369,4.702-5.846,8.063-10.887,8.173c-15.485,0.337-37.227,4.022-52.867,19.664C5.982,190.797-1.519,210.506,0.257,231.827
		c1.619,19.449,11.216,38.891,27.035,54.762l0.121,0.121c0,0,0,0,0.001,0c0,0,0.003,0.003,0.004,0.004
		c0.002,0.002,0.005,0.005,0.009,0.009c0.001,0.001,0.002,0.002,0.003,0.003c0.002,0.002,0.004,0.004,0.006,0.006
		c0.002,0.002,0.004,0.004,0.006,0.006c0.004,0.004,0.006,0.006,0.008,0.008c0.004,0.002,0.003,0.004,0.005,0.004
		c15.856,15.793,35.285,25.379,54.72,26.996c2.019,0.168,4.054,0.254,6.051,0.254c18.976-0.001,36.593-7.589,50.947-21.944
		c15.642-15.644,19.327-37.384,19.663-52.867c0.11-5.042,3.471-9.52,8.172-10.889c8.196-2.387,15.059-6.304,20.395-11.641
		c11.108-11.107,17.2-24.764,17.617-39.492c0.304-10.644-2.83-21.662-8.826-31.847l69.35-69.35c0.824,0.179,1.675,0.28,2.547,0.28
		c3.341,0,6.684-1.376,9.229-3.788l3.475-2.879l4.485,4.484c1.367,1.366,3.158,2.05,4.949,2.05c1.791,0,3.583-0.684,4.95-2.051
		c2.733-2.733,2.733-7.166-0.001-9.899l-3.556-3.556l3.087-2.558l3.737,3.737c1.367,1.367,3.158,2.051,4.95,2.051
		c1.791,0,3.583-0.684,4.949-2.05c2.734-2.733,2.734-7.166,0.001-9.899L305.537,49.082z M278.102,14.501l21.399,21.4l-31.056,25.732
		l-16.076-16.077L278.102,14.501z M191.026,176.769c-0.313,11.088-4.989,21.458-13.522,29.989c-3.652,3.653-8.501,6.379-14.41,8.1
		c-10.506,3.06-18.013,12.939-18.254,24.025c-0.281,12.92-3.21,30.915-15.567,43.273c-12.91,12.91-28.908,19.051-45.936,17.638
		c-16.183-1.348-32.55-9.532-46.079-23.041c-13.517-13.536-21.701-29.904-23.049-46.088c-1.423-17.088,4.676-32.972,17.64-45.935
		c12.355-12.356,30.351-15.285,43.272-15.567c11.086-0.241,20.965-7.748,24.023-18.254c1.721-5.906,4.446-10.755,8.101-14.409
		c8.534-8.533,18.904-13.21,29.99-13.524c0.326-0.009,0.656-0.014,0.988-0.014c12.24,0,25.376,6.115,36.038,16.777
		C189.9,155.379,191.195,170.844,191.026,176.769z M184.161,129.84c-1.297-1.297-2.637-2.523-3.996-3.711l66.488-66.489l7.709,7.71
		l-66.488,66.488C186.687,132.48,185.46,131.14,184.161,129.84z"/>
</g>
<g>
</g>
<g>
</g>
<g>
</g>
<g>
</g>
<g>
</g>
<g>
</g>
<g>
</g>
<g>
</g>
<g>
</g>
<g>
</g>
<g>
</g>
<g>
</g>
<g>
</g>
<g>
</g>
<g>
</g>
</svg>
