<?xml version="1.0" encoding="iso-8859-1"?>
<!-- Generator: Adobe Illustrator 18.0.0, SVG Export Plug-In . SVG Version: 6.00 Build 0)  -->
<!DOCTYPE svg PUBLIC "-//W3C//DTD SVG 1.1//EN" "http://www.w3.org/Graphics/SVG/1.1/DTD/svg11.dtd">
<svg version="1.1" id="Capa_1" xmlns="http://www.w3.org/2000/svg" xmlns:xlink="http://www.w3.org/1999/xlink" x="0px" y="0px"
	 viewBox="0 0 314 314" style="enable-background:new 0 0 314 314;" xml:space="preserve">
<g>
	<path d="M289.231,35.146H24.769C11.111,35.146,0,46.257,0,59.914v194.17c0,13.657,11.111,24.769,24.769,24.769h36.168
		c0.011,0,0.023,0.002,0.033,0.002c0.01,0,0.019-0.002,0.028-0.002h228.233c13.657,0,24.769-11.111,24.769-24.769V59.914
		C314,46.257,302.889,35.146,289.231,35.146z M72.42,264.853l14.309-27.969c3.274-6.396,12.446-12.007,19.631-12.007h101.281
		c7.185,0,16.357,5.61,19.631,12.007l14.31,27.969H72.42z M300,254.084c0,5.938-4.831,10.769-10.769,10.769h-31.925l-17.572-34.346
		c-5.632-11.008-19.73-19.63-32.094-19.63H106.359c-12.364,0-26.462,8.622-32.094,19.63l-17.571,34.346H24.769
		c-5.938,0-10.769-4.831-10.769-10.769V59.914c0-5.938,4.831-10.769,10.769-10.769h264.463c5.938,0,10.769,4.831,10.769,10.769
		V254.084z"/>
	<path d="M87.254,117.363c-21.855,0-39.636,17.78-39.636,39.636s17.78,39.636,39.636,39.636s39.636-17.78,39.636-39.636
		S109.109,117.363,87.254,117.363z M87.254,182.635c-14.136,0-25.636-11.5-25.636-25.636c0-14.136,11.5-25.636,25.636-25.636
		s25.636,11.5,25.636,25.636C112.89,171.135,101.39,182.635,87.254,182.635z"/>
	<path d="M226.745,117.363c-21.855,0-39.636,17.78-39.636,39.636s17.78,39.636,39.636,39.636s39.636-17.78,39.636-39.636
		S248.601,117.363,226.745,117.363z M226.745,182.635c-14.136,0-25.636-11.5-25.636-25.636c0-14.136,11.5-25.636,25.636-25.636
		c14.136,0,25.636,11.5,25.636,25.636C252.381,171.135,240.881,182.635,226.745,182.635z"/>
	<path d="M87.254,90.567h139.491c3.866,0,7-3.134,7-7c0-3.866-3.134-7-7-7H87.254c-3.866,0-7,3.134-7,7
		C80.254,87.434,83.388,90.567,87.254,90.567z"/>
</g>
<g>
</g>
<g>
</g>
<g>
</g>
<g>
</g>
<g>
</g>
<g>
</g>
<g>
</g>
<g>
</g>
<g>
</g>
<g>
</g>
<g>
</g>
<g>
</g>
<g>
</g>
<g>
</g>
<g>
</g>
</svg>
