<?xml version="1.0" encoding="iso-8859-1"?>
<!-- Generator: Adobe Illustrator 18.0.0, SVG Export Plug-In . SVG Version: 6.00 Build 0)  -->
<!DOCTYPE svg PUBLIC "-//W3C//DTD SVG 1.1//EN" "http://www.w3.org/Graphics/SVG/1.1/DTD/svg11.dtd">
<svg version="1.1" id="Capa_1" xmlns="http://www.w3.org/2000/svg" xmlns:xlink="http://www.w3.org/1999/xlink" x="0px" y="0px"
	 viewBox="0 0 314 314" style="enable-background:new 0 0 314 314;" xml:space="preserve">
<g>
	<path d="M49.64,219.115c-2.735-2.735-7.168-2.732-9.899,0.001c-2.733,2.734-2.732,7.167,0.001,9.899l37.35,37.338
		c1.367,1.367,3.158,2.05,4.949,2.05c1.792,0,3.584-0.684,4.95-2.051c2.733-2.734,2.732-7.167-0.001-9.899L49.64,219.115z"/>
	<path d="M148.505,178.186c-1.977-4.418-4.766-8.557-8.386-12.179c-7.737-7.727-18.018-11.983-28.945-11.983
		c-10.931,0-21.206,4.257-28.931,11.984c-7.739,7.73-12.001,18.007-12.001,28.936c0,10.929,4.263,21.204,11.999,28.932
		c7.727,7.726,18.003,11.979,28.933,11.979c10.927,0,21.206-4.253,28.948-11.98c12.197-12.201,15.054-30.252,8.591-45.209
		C148.65,178.504,148.58,178.345,148.505,178.186z M96.154,217.284c-1.427-0.963-2.772-2.067-4.017-3.311
		c-1.247-1.246-2.355-2.594-3.321-4.021l37.379-37.357c1.43,0.964,2.778,2.07,4.025,3.315c1.252,1.253,2.35,2.602,3.303,4.019
		L96.154,217.284z M110.958,168.029l-26.71,26.694c0.057-7.104,2.85-13.776,7.893-18.813
		C97.174,170.875,103.849,168.085,110.958,168.029z M111.389,221.851l26.696-26.686c-0.056,6.818-2.672,13.619-7.858,18.808
		C125.184,219.005,118.501,221.795,111.389,221.851z"/>
	<path d="M312.704,37.433l-11.787-11.783L289.13,13.866c-1.28-1.266-3.26-1.91-5.381-1.91c-1.884,0-3.879,0.508-5.595,1.54
		l-8.53,4.171c-0.136-0.162-0.276-0.322-0.429-0.475l-7.222-7.228c-2.732-2.733-7.165-2.738-9.899-0.005
		c-2.735,2.732-2.737,7.165-0.005,9.899l4.291,4.295l-3.427,1.676l-5.484-5.484c-2.734-2.732-7.165-2.733-9.899,0.001
		c-2.733,2.733-2.733,7.166,0.001,9.899l2.086,2.086l-11.368,5.56c-3.649,2.194-4.241,6.336-1.332,9.257l2.479,2.476l-63.486,63.465
		c-6.621-2.299-14.247-3.456-22.831-3.456c-40.072,0-94.326,26.32-117.956,49.942C8.929,175.787,0,197.341,0,220.266
		s8.929,44.477,25.142,60.684c16.212,16.211,37.771,25.14,60.704,25.14s44.492-8.929,60.703-25.14
		c16.607-16.603,33.856-47.428,42.922-76.705c8.011-25.868,9.133-47.818,3.543-63.981l63.635-63.614
		c1.64,1.168,3.734,1.787,5.834,1.787c1.767,0,3.531-0.431,5.018-1.325l9.79-7.153c0.057,0.061,0.106,0.124,0.165,0.183l7.222,7.22
		c1.367,1.367,3.158,2.05,4.949,2.05c1.792,0,3.584-0.684,4.95-2.051c2.733-2.734,2.733-7.166-0.001-9.899l-5.855-5.852l2.958-2.161
		l5.081,5.08c1.367,1.366,3.158,2.05,4.949,2.05s3.583-0.684,4.95-2.051c2.733-2.733,2.733-7.166-0.001-9.899l-3.539-3.538
		l7.315-5.345C314.085,43.561,315.096,39.839,312.704,37.433z M176.098,200.102c-8.453,27.298-24.306,55.809-39.448,70.946
		c-13.567,13.568-31.609,21.04-50.804,21.04c-19.194,0-37.237-7.473-50.806-21.04C21.472,257.485,14,239.45,14,220.266
		c0-19.186,7.472-37.223,21.04-50.79c21.646-21.64,72.458-45.843,108.058-45.843c13.322,0,23.329,3.252,29.742,9.665
		C184.46,144.914,185.646,169.264,176.098,200.102z M182.738,123.397c-1.223-1.223-2.526-2.358-3.898-3.419l60.477-60.457
		l1.949,1.947l5.387,5.377l-60.492,60.474C185.098,125.936,183.963,124.622,182.738,123.397z M262.813,63.196l-11.651-11.63
		l-6.239-6.235l37.524-18.35l8.572,8.569l4.067,4.066L262.813,63.196z"/>
</g>
<g>
</g>
<g>
</g>
<g>
</g>
<g>
</g>
<g>
</g>
<g>
</g>
<g>
</g>
<g>
</g>
<g>
</g>
<g>
</g>
<g>
</g>
<g>
</g>
<g>
</g>
<g>
</g>
<g>
</g>
</svg>
