<?xml version="1.0" encoding="iso-8859-1"?>
<!-- Generator: Adobe Illustrator 18.0.0, SVG Export Plug-In . SVG Version: 6.00 Build 0)  -->
<!DOCTYPE svg PUBLIC "-//W3C//DTD SVG 1.1//EN" "http://www.w3.org/Graphics/SVG/1.1/DTD/svg11.dtd">
<svg version="1.1" id="Capa_1" xmlns="http://www.w3.org/2000/svg" xmlns:xlink="http://www.w3.org/1999/xlink" x="0px" y="0px"
	 viewBox="0 0 314 314" style="enable-background:new 0 0 314 314;" xml:space="preserve">
<path d="M300.163,64.661c-2.956,0-5.972,0.876-8.966,2.604L164,140.7v-60.27c0-9.285-5.69-15.77-13.838-15.77
	c-2.955,0-5.972,0.876-8.966,2.604L8.574,143.833c-5.449,3.147-8.575,7.947-8.574,13.168c0,5.22,3.126,10.019,8.575,13.164
	l132.621,76.567c2.994,1.729,6.011,2.605,8.967,2.605c8.146,0,13.837-6.485,13.837-15.771v-60.27l127.196,73.435
	c2.994,1.729,6.012,2.606,8.967,2.606c8.147,0,13.837-6.485,13.837-15.771V80.431C314,71.146,308.309,64.661,300.163,64.661z
	 M150,233.567c0,0.848-0.111,1.396-0.211,1.718c-0.325-0.075-0.858-0.253-1.593-0.677L15.575,158.04
	c-0.735-0.424-1.154-0.794-1.383-1.041c0.229-0.247,0.647-0.618,1.383-1.042l132.621-76.566c0.731-0.423,1.264-0.601,1.596-0.676
	c0.103,0.34,0.208,0.901,0.208,1.716V233.567z M300,233.567c0,0.848-0.11,1.396-0.211,1.718c-0.325-0.075-0.858-0.253-1.592-0.677
	L165.575,158.04c-0.734-0.424-1.154-0.794-1.382-1.041c0.228-0.247,0.646-0.618,1.382-1.042l132.622-76.566
	c0.731-0.423,1.263-0.601,1.595-0.675c0.103,0.339,0.208,0.9,0.208,1.715V233.567z"/>
<g>
</g>
<g>
</g>
<g>
</g>
<g>
</g>
<g>
</g>
<g>
</g>
<g>
</g>
<g>
</g>
<g>
</g>
<g>
</g>
<g>
</g>
<g>
</g>
<g>
</g>
<g>
</g>
<g>
</g>
</svg>
