<?xml version="1.0" encoding="iso-8859-1"?>
<!-- Generator: Adobe Illustrator 18.0.0, SVG Export Plug-In . SVG Version: 6.00 Build 0)  -->
<!DOCTYPE svg PUBLIC "-//W3C//DTD SVG 1.1//EN" "http://www.w3.org/Graphics/SVG/1.1/DTD/svg11.dtd">
<svg version="1.1" id="Capa_1" xmlns="http://www.w3.org/2000/svg" xmlns:xlink="http://www.w3.org/1999/xlink" x="0px" y="0px"
	 viewBox="0 0 314.001 314.001" style="enable-background:new 0 0 314.001 314.001;" xml:space="preserve">
<path d="M307.65,273.522c-0.025-0.025-0.052-0.051-0.077-0.076L186.966,156.559l92.99-95.953c8.021-0.828,16.095-4.843,22.55-11.297
	c6.069-6.068,10.027-13.63,11.145-21.292c1.211-8.301-1.112-16.075-6.369-21.323C302.969,2.377,296.93,0,290.276,0
	c-9,0-18.338,4.177-25.62,11.459c-6.506,6.507-10.518,14.618-11.308,22.684L157,127.519L60.653,34.144
	c-0.79-8.066-4.802-16.178-11.308-22.685c-6.067-6.066-13.627-10.023-21.29-11.14c-8.307-1.207-16.08,1.113-21.33,6.368
	C1.463,11.941-0.861,19.716,0.35,28.017c1.118,7.662,5.075,15.223,11.144,21.292c6.473,6.472,14.53,10.477,22.553,11.299
	l92.989,95.951L6.428,273.445c-0.025,0.025-0.052,0.051-0.077,0.076c-4.36,4.359-6.596,10.268-6.294,16.636
	c0.29,6.117,2.913,11.95,7.384,16.422C12.153,311.295,18.547,314,24.982,314c0.001,0,0.001,0,0.002,0
	c5.935,0,11.45-2.243,15.524-6.317c0.026-0.026,0.052-0.052,0.077-0.079l116.416-120.125l116.414,120.125
	c0.025,0.026,0.051,0.053,0.076,0.079c4.099,4.099,9.566,6.318,15.499,6.318c0.378,0,0.759-0.009,1.141-0.027
	c6.12-0.291,11.954-2.917,16.426-7.392c4.474-4.475,7.098-10.308,7.387-16.425C314.246,283.789,312.01,277.881,307.65,273.522z
	 M43.394,50.136c-1.257-2.073-3.518-3.372-5.986-3.372c-0.102,0.001-0.197,0.003-0.296,0.002c-5.24,0-11.101-2.739-15.719-7.357
	c-3.895-3.894-6.515-8.782-7.191-13.412c-0.332-2.279-0.461-6.532,2.419-9.407c2.875-2.877,7.129-2.748,9.413-2.416
	c4.631,0.675,9.519,3.294,13.409,7.186c4.678,4.677,7.426,10.629,7.352,15.922c-0.032,2.264,1.051,4.343,2.815,5.658l97.33,94.328
	l-9.852,9.549L43.394,50.136z M30.577,297.815C28.75,299.62,26.529,300,24.983,300c-2.749,0-5.532-1.209-7.64-3.317
	c-2.005-2.006-3.178-4.558-3.302-7.188c-0.112-2.363,0.66-4.507,2.177-6.041L264.177,43.144c1.901-1.309,3.061-3.497,3.028-5.863
	c-0.074-5.292,2.673-11.245,7.351-15.922C279.163,16.751,285.04,14,290.276,14c2.06,0,4.965,0.449,7.108,2.595
	c2.874,2.87,2.746,7.122,2.413,9.401c-0.675,4.63-3.296,9.518-7.189,13.412c-4.607,4.607-10.486,7.357-15.727,7.357l-0.194-0.001
	c-0.031-0.001-0.063-0.001-0.095-0.001c-2.47,0-4.732,1.3-5.987,3.375L30.577,297.815z M299.96,289.495
	c-0.124,2.63-1.297,5.182-3.305,7.19c-2.005,2.006-4.558,3.18-7.189,3.305c-2.356,0.114-4.508-0.659-6.042-2.174L166.749,177.42
	l10.475-10.808l120.56,116.843C299.299,284.989,300.072,287.133,299.96,289.495z"/>
<g>
</g>
<g>
</g>
<g>
</g>
<g>
</g>
<g>
</g>
<g>
</g>
<g>
</g>
<g>
</g>
<g>
</g>
<g>
</g>
<g>
</g>
<g>
</g>
<g>
</g>
<g>
</g>
<g>
</g>
</svg>
