<?xml version="1.0" encoding="iso-8859-1"?>
<!-- Generator: Adobe Illustrator 18.0.0, SVG Export Plug-In . SVG Version: 6.00 Build 0)  -->
<!DOCTYPE svg PUBLIC "-//W3C//DTD SVG 1.1//EN" "http://www.w3.org/Graphics/SVG/1.1/DTD/svg11.dtd">
<svg version="1.1" id="Capa_1" xmlns="http://www.w3.org/2000/svg" xmlns:xlink="http://www.w3.org/1999/xlink" x="0px" y="0px"
	 viewBox="0 0 317.382 317.382" style="enable-background:new 0 0 317.382 317.382;" xml:space="preserve">
<path d="M310.939,7.001c0-2.045-0.895-3.988-2.448-5.317c-1.553-1.331-3.609-1.917-5.632-1.599L89.555,33.388
	c-3.407,0.532-5.92,3.467-5.92,6.916l0.001,207.812c-7.095-5.059-16.306-7.827-26.242-7.827c-11.975,0-23.812,3.893-33.331,10.962
	c-10.245,7.606-16.629,18.207-17.516,29.082c-0.858,10.497,3.602,20.858,11.934,27.717c7.313,6.019,17.336,9.333,28.222,9.333
	c5.192,0,10.424-0.753,15.551-2.238c17.07-4.945,35.415-19.776,35.382-40.659c0-0.006,0-176.816,0-176.816l199.304-31.117
	l0.001,148.261c-7.095-5.059-16.306-7.827-26.242-7.827c-11.975,0-23.812,3.893-33.331,10.962
	c-10.245,7.606-16.629,18.207-17.516,29.082c-0.858,10.497,3.602,20.858,11.934,27.717c7.313,6.018,17.336,9.333,28.222,9.333
	c5.192,0,10.424-0.753,15.551-2.238c17.07-4.945,35.415-19.776,35.382-40.659C310.939,241.176,310.939,7.001,310.939,7.001z
	 M58.358,301.696c-3.86,1.118-7.781,1.686-11.655,1.686c-7.648,0-14.512-2.182-19.324-6.143c-4.791-3.944-7.362-9.838-6.878-15.767
	c0.56-6.859,4.9-13.777,11.908-18.982c7.021-5.213,16.127-8.202,24.985-8.202c7.65,0,14.516,2.182,19.33,6.144
	c4.378,3.603,6.897,8.725,6.912,14.052C83.671,287.532,70.946,298.05,58.358,301.696z M97.635,83.499V46.296l199.304-31.117v37.204
	L97.635,83.499z M271.662,268.393c-3.86,1.118-7.781,1.686-11.655,1.686c-7.648,0-14.512-2.182-19.324-6.143
	c-4.791-3.944-7.362-9.838-6.878-15.768c0.56-6.859,4.9-13.777,11.908-18.981c7.021-5.213,16.127-8.202,24.985-8.202
	c7.65,0,14.516,2.182,19.33,6.145c4.378,3.602,6.897,8.725,6.912,14.052C296.975,254.229,284.25,264.747,271.662,268.393z"/>
<g>
</g>
<g>
</g>
<g>
</g>
<g>
</g>
<g>
</g>
<g>
</g>
<g>
</g>
<g>
</g>
<g>
</g>
<g>
</g>
<g>
</g>
<g>
</g>
<g>
</g>
<g>
</g>
<g>
</g>
</svg>
