<?xml version="1.0" encoding="iso-8859-1"?>
<!-- Generator: Adobe Illustrator 18.0.0, SVG Export Plug-In . SVG Version: 6.00 Build 0)  -->
<!DOCTYPE svg PUBLIC "-//W3C//DTD SVG 1.1//EN" "http://www.w3.org/Graphics/SVG/1.1/DTD/svg11.dtd">
<svg version="1.1" id="Capa_1" xmlns="http://www.w3.org/2000/svg" xmlns:xlink="http://www.w3.org/1999/xlink" x="0px" y="0px"
	 viewBox="0 0 314 314" style="enable-background:new 0 0 314 314;" xml:space="preserve">
<g>
	<circle cx="110.302" cy="161.039" r="5.221"/>
	<path d="M110.303,123.336c-20.789,0-37.702,16.913-37.702,37.702c0,20.789,16.913,37.702,37.701,37.702
		c20.789,0,37.702-16.913,37.702-37.701C148.003,140.251,131.09,123.337,110.303,123.336z M110.302,184.74
		c-13.069,0-23.701-10.633-23.701-23.702s10.633-23.702,23.702-23.702c13.068,0.001,23.7,10.634,23.701,23.703
		C134.004,174.108,123.371,184.74,110.302,184.74z"/>
	<path d="M70.133,130.758c-2.754-2.711-7.187-2.676-9.899,0.079c-7.633,7.757-12.01,18.766-12.009,30.202
		c-0.001,11.438,4.376,22.445,12.009,30.201c1.37,1.393,3.18,2.09,4.989,2.09c1.773,0,3.547-0.669,4.91-2.011
		c2.755-2.712,2.791-7.145,0.079-9.899c-5.077-5.158-7.988-12.586-7.987-20.381c-0.001-7.794,2.91-15.223,7.987-20.382
		C72.924,137.901,72.888,133.47,70.133,130.758z"/>
	<path d="M289.231,35.146H24.769C11.111,35.146,0,46.258,0,59.915v194.17c0,13.657,11.111,24.768,24.769,24.768h264.463
		c13.657,0,24.769-11.111,24.769-24.768V59.915C314,46.258,302.889,35.146,289.231,35.146z M300,254.085
		c0,5.937-4.831,10.768-10.769,10.768H24.769c-5.938,0-10.769-4.831-10.769-10.768V59.915c0-5.938,4.831-10.769,10.769-10.769
		h264.463c5.938,0,10.769,4.831,10.769,10.769V254.085z"/>
	<path d="M217.954,224.692c-3.866,0-7,3.134-7,7v13.149c0,3.866,3.134,7,7,7s7-3.134,7-7v-13.149
		C224.954,227.826,221.82,224.692,217.954,224.692z"/>
	<path d="M247.147,224.692c-3.866,0-7,3.134-7,7v13.149c0,3.866,3.134,7,7,7c3.866,0,7-3.134,7-7v-13.149
		C254.147,227.826,251.014,224.692,247.147,224.692z"/>
	<path d="M276.343,224.692c-3.866,0-7,3.134-7,7v13.149c0,3.866,3.134,7,7,7c3.866,0,7-3.134,7-7v-13.149
		C283.343,227.826,280.209,224.692,276.343,224.692z"/>
	<path d="M253.815,74.055c-18.295,0-33.18,14.885-33.18,33.18c0,5.201,1.206,10.125,3.349,14.512l-28.375,22.268
		c-7.937-39.841-43.169-69.961-85.308-69.961c-47.963,0-86.985,39.022-86.986,86.985c0.001,47.965,39.023,86.986,86.987,86.986
		c47.963,0,86.984-39.021,86.984-86.986c0-0.181-0.006-0.359-0.007-0.539l35.355-27.746c5.751,4.78,13.135,7.661,21.18,7.661
		c18.296,0,33.181-14.885,33.181-33.18S272.111,74.055,253.815,74.055z M110.303,234.024c-40.244,0-72.986-32.741-72.987-72.986
		c0.001-40.244,32.742-72.985,72.986-72.985c37.855,0,69.063,28.972,72.636,65.905l-30.259,23.746
		c-3.042,2.387-3.572,6.787-1.186,9.828c1.381,1.76,3.436,2.679,5.512,2.679c1.512,0,3.035-0.487,4.316-1.493l21.123-16.576
		C177.08,207.136,146.772,234.024,110.303,234.024z M253.815,126.414c-3.544,0-6.855-0.982-9.705-2.665l14.026-11.008
		c3.042-2.387,3.572-6.787,1.186-9.828c-2.386-3.041-6.787-3.571-9.828-1.186l-14.042,11.02c-0.525-1.747-0.816-3.597-0.816-5.513
		c0-10.576,8.604-19.18,19.18-19.18c10.576,0,19.181,8.604,19.181,19.18C272.996,117.811,264.392,126.414,253.815,126.414z"/>
</g>
<g>
</g>
<g>
</g>
<g>
</g>
<g>
</g>
<g>
</g>
<g>
</g>
<g>
</g>
<g>
</g>
<g>
</g>
<g>
</g>
<g>
</g>
<g>
</g>
<g>
</g>
<g>
</g>
<g>
</g>
</svg>
