<?xml version="1.0" encoding="iso-8859-1"?>
<!-- Generator: Adobe Illustrator 18.0.0, SVG Export Plug-In . SVG Version: 6.00 Build 0)  -->
<!DOCTYPE svg PUBLIC "-//W3C//DTD SVG 1.1//EN" "http://www.w3.org/Graphics/SVG/1.1/DTD/svg11.dtd">
<svg version="1.1" id="Capa_1" xmlns="http://www.w3.org/2000/svg" xmlns:xlink="http://www.w3.org/1999/xlink" x="0px" y="0px"
	 viewBox="0 0 313.999 313.999" style="enable-background:new 0 0 313.999 313.999;" xml:space="preserve">
<g>
	<g>
		<path d="M275.756,246.648H38.245c-8.346,0-15.049-3.319-18.39-9.106c-3.341-5.787-2.863-13.251,1.311-20.478L139.918,11.37
			C144.092,4.143,150.318,0,157,0c6.682,0,12.907,4.143,17.079,11.37l118.758,205.695c4.172,7.227,4.648,14.69,1.308,20.477
			C290.802,243.329,284.101,246.648,275.756,246.648z M157,14c-1.5,0-3.399,1.675-4.957,4.371L33.29,224.065
			c-1.558,2.696-2.06,5.179-1.31,6.477c0.75,1.299,3.15,2.106,6.265,2.106h237.512c3.113,0,5.513-0.807,6.263-2.106
			c0.75-1.3,0.249-3.781-1.308-6.477L161.954,18.37C160.398,15.674,158.499,14,157,14z"/>
	</g>
	<g>
		<path d="M289.36,313.999H24.639c-3.866,0-7-3.134-7-7c0-3.866,3.134-7,7-7H289.36c3.866,0,7,3.134,7,7
			C296.36,310.865,293.226,313.999,289.36,313.999z"/>
	</g>
</g>
<g>
</g>
<g>
</g>
<g>
</g>
<g>
</g>
<g>
</g>
<g>
</g>
<g>
</g>
<g>
</g>
<g>
</g>
<g>
</g>
<g>
</g>
<g>
</g>
<g>
</g>
<g>
</g>
<g>
</g>
</svg>
