<?xml version="1.0" encoding="iso-8859-1"?>
<!-- Generator: Adobe Illustrator 18.0.0, SVG Export Plug-In . SVG Version: 6.00 Build 0)  -->
<!DOCTYPE svg PUBLIC "-//W3C//DTD SVG 1.1//EN" "http://www.w3.org/Graphics/SVG/1.1/DTD/svg11.dtd">
<svg version="1.1" id="Capa_1" xmlns="http://www.w3.org/2000/svg" xmlns:xlink="http://www.w3.org/1999/xlink" x="0px" y="0px"
	 viewBox="0 0 314 314" style="enable-background:new 0 0 314 314;" xml:space="preserve">
<path d="M313.292,156.999c0.024-2.601,0.708-75.277,0.706-87.736c0-11.386-6.404-16.482-12.752-16.482
	c-5.815,0-11.266,4.241-13.559,10.548c-1.353,3.54-14.879,22.351-36.419,40.16c-18.638,15.408-47.788,33.776-80.825,33.776h-7.284
	v-15.959h2.017c3.866,0,7-3.134,7-7c0-3.866-3.134-7-7-7h-18.033c-3.866,0-7,3.134-7,7c0,3.866,3.134,7,7,7h2.017v15.959h-25.977
	l0.001-15.959h2.018c3.866,0,7-3.134,7-7c0-3.866-3.134-7-7-7h-18.035c-3.866,0-7,3.134-7,7c0,3.866,3.134,7,7,7h2.018
	l-0.001,15.959H83.208v-15.959h2.018c3.866,0,7-3.134,7-7c0-3.866-3.134-7-7-7H67.191c-3.866,0-7,3.134-7,7c0,3.866,3.134,7,7,7
	h2.017v15.959H35.84l-25.215-15.264c-2.162-1.309-4.86-1.351-7.062-0.11C1.361,123.132,0,125.463,0,127.99v58.02
	c0,2.526,1.361,4.857,3.563,6.098c1.067,0.603,2.252,0.902,3.437,0.902c1.257,0,2.512-0.338,3.625-1.012l25.214-15.263h7.377
	l-0.002,24.662c0.001,23.581,19.186,42.767,42.767,42.768l60.404-0.001h0.002c11.406,0,22.141-4.452,30.226-12.537
	c8.085-8.085,12.537-18.82,12.538-30.229v-22.743c25.225,5.092,47.091,19.434,62.118,31.858c21.54,17.81,35.066,36.62,36.417,40.154
	c2.295,6.31,7.744,10.552,13.56,10.553c0.001,0,0.001,0,0.001,0c6.348,0,12.752-5.097,12.754-16.484
	C313.998,232.277,313.316,159.6,313.292,156.999z M14,140.41l12.886,7.801v17.579L14,173.589V140.41z M175.15,201.397
	c0,7.669-2.997,14.889-8.438,20.33c-5.44,5.44-12.659,8.437-20.327,8.437h-0.001l-60.404,0.001
	c-15.861-0.001-28.766-12.906-28.767-28.768l0.002-24.662h11.804l-0.002,24.663c0.002,9.354,7.611,16.963,16.963,16.963h60.404
	c9.352-0.002,16.962-7.611,16.962-16.964v-24.661h7.097c1.579,0,3.146,0.055,4.707,0.137V201.397z M83.019,176.735l66.327,0.001
	v24.661c0,1.634-1.33,2.964-2.963,2.964H85.98c-1.634,0-2.963-1.33-2.963-2.964L83.019,176.735z M260.414,199.909
	c-20.454-16.958-52.667-37.173-89.971-37.173l-129.558-0.001v-11.47h129.558c37.304,0,69.517-20.215,89.971-37.173
	c20.173-16.726,35.291-35.532,39.583-44.061c-0.023,14.541-0.698,86.166-0.705,86.901c0,0.044,0,0.088,0,0.132
	c0.007,0.736,0.681,72.381,0.707,86.908C295.709,235.447,280.59,216.636,260.414,199.909z"/>
<g>
</g>
<g>
</g>
<g>
</g>
<g>
</g>
<g>
</g>
<g>
</g>
<g>
</g>
<g>
</g>
<g>
</g>
<g>
</g>
<g>
</g>
<g>
</g>
<g>
</g>
<g>
</g>
<g>
</g>
</svg>
