<?xml version="1.0" encoding="iso-8859-1"?>
<!-- Generator: Adobe Illustrator 18.0.0, SVG Export Plug-In . SVG Version: 6.00 Build 0)  -->
<!DOCTYPE svg PUBLIC "-//W3C//DTD SVG 1.1//EN" "http://www.w3.org/Graphics/SVG/1.1/DTD/svg11.dtd">
<svg version="1.1" id="Capa_1" xmlns="http://www.w3.org/2000/svg" xmlns:xlink="http://www.w3.org/1999/xlink" x="0px" y="0px"
	 viewBox="0 0 314 314" style="enable-background:new 0 0 314 314;" xml:space="preserve">
<g>
	<path d="M296.198,94.668v-33.26c0-10.842-8.819-19.662-19.659-19.662H37.463c-10.841,0-19.661,8.82-19.661,19.662v33.26
		C7.83,95.609,0,104.022,0,114.236v138.357c0,10.841,8.82,19.66,19.662,19.66h274.677c10.841,0,19.661-8.819,19.661-19.66V114.236
		C314,104.022,306.17,95.609,296.198,94.668z M37.463,55.746h239.076c3.12,0,5.659,2.54,5.659,5.662v33.166h-89.609V84.485
		c0-3.866-3.134-7-7-7s-7,3.134-7,7v10.089H164V84.485c0-3.866-3.134-7-7-7c-3.866,0-7,3.134-7,7v10.089h-14.589V84.485
		c0-3.866-3.134-7-7-7c-3.866,0-7,3.134-7,7v10.089H31.802V61.408C31.802,58.286,34.342,55.746,37.463,55.746z M300,252.594
		c0,3.121-2.54,5.66-5.661,5.66H19.662c-3.122,0-5.662-2.539-5.662-5.66V114.236c0-3.122,2.54-5.662,5.662-5.662h274.677
		c3.121,0,5.661,2.54,5.661,5.662V252.594z"/>
	<path d="M73.598,137.368c-25.391,0-46.047,20.656-46.047,46.046c0,25.391,20.656,46.047,46.047,46.047
		c25.391,0,46.047-20.656,46.047-46.047C119.644,158.024,98.988,137.368,73.598,137.368z M73.598,215.461
		c-17.671,0-32.047-14.376-32.047-32.047c0-17.67,14.376-32.046,32.047-32.046s32.047,14.376,32.047,32.046
		C105.645,201.085,91.269,215.461,73.598,215.461z"/>
	<path d="M240.401,137.368c-25.391,0-46.047,20.656-46.047,46.046c0,25.391,20.656,46.047,46.047,46.047
		c25.391,0,46.047-20.656,46.047-46.047C286.448,158.024,265.792,137.368,240.401,137.368z M240.401,215.461
		c-17.671,0-32.047-14.376-32.047-32.047c0-17.67,14.376-32.046,32.047-32.046s32.047,14.376,32.047,32.046
		C272.448,201.085,258.072,215.461,240.401,215.461z"/>
	<path d="M183.987,122.438h-53.976c-3.866,0-7,3.134-7,7c0,3.866,3.134,7,7,7h53.976c3.866,0,7-3.134,7-7
		C190.987,125.572,187.854,122.438,183.987,122.438z"/>
	<path d="M179.836,195.417h-45.673c-3.866,0-7,3.134-7,7v32.759c0,3.866,3.134,7,7,7h45.673c3.866,0,7-3.134,7-7v-32.759
		C186.836,198.551,183.702,195.417,179.836,195.417z M172.836,228.176h-31.673v-18.759h31.673V228.176z"/>
</g>
<g>
</g>
<g>
</g>
<g>
</g>
<g>
</g>
<g>
</g>
<g>
</g>
<g>
</g>
<g>
</g>
<g>
</g>
<g>
</g>
<g>
</g>
<g>
</g>
<g>
</g>
<g>
</g>
<g>
</g>
</svg>
