<?xml version="1.0" encoding="iso-8859-1"?>
<!-- Generator: Adobe Illustrator 18.0.0, SVG Export Plug-In . SVG Version: 6.00 Build 0)  -->
<!DOCTYPE svg PUBLIC "-//W3C//DTD SVG 1.1//EN" "http://www.w3.org/Graphics/SVG/1.1/DTD/svg11.dtd">
<svg version="1.1" id="Capa_1" xmlns="http://www.w3.org/2000/svg" xmlns:xlink="http://www.w3.org/1999/xlink" x="0px" y="0px"
	 viewBox="0 0 314.009 314.009" style="enable-background:new 0 0 314.009 314.009;" xml:space="preserve">
<g>
	<path d="M308.457,107.313L206.696,5.554c-3.577-3.579-8.347-5.55-13.429-5.55s-9.852,1.971-13.429,5.548L5.553,179.839
		c-7.403,7.405-7.403,19.453,0,26.857l101.76,101.759c3.577,3.579,8.347,5.55,13.43,5.55c5.082,0,9.852-1.971,13.429-5.548
		l174.286-174.286C315.86,126.766,315.86,114.719,308.457,107.313z M298.556,124.271L124.271,298.556
		c-0.934,0.934-2.187,1.448-3.529,1.448c-1.343,0-2.595-0.514-3.528-1.448L15.453,196.796c-1.946-1.945-1.946-5.112,0-7.058
		L189.738,15.453c0.934-0.934,2.186-1.448,3.529-1.448c1.342,0,2.594,0.514,3.527,1.448l101.762,101.76
		C300.503,119.159,300.503,122.326,298.556,124.271z"/>
	<path d="M198.119,36.774c-2.734-2.732-7.167-2.732-9.899,0l-70.488,70.487c-1.313,1.313-2.051,3.094-2.051,4.95
		c0,1.856,0.737,3.637,2.05,4.95l79.116,79.116c1.367,1.366,3.159,2.05,4.95,2.05s3.583-0.684,4.95-2.05l70.488-70.488
		c1.313-1.314,2.05-3.094,2.05-4.95c0-1.856-0.737-3.637-2.05-4.95L198.119,36.774z M201.797,181.428l-69.217-69.217l60.589-60.588
		l69.217,69.216L201.797,181.428z"/>
	<path d="M110.72,159.621c-11.663,0-22.629,4.542-30.876,12.789c-8.248,8.249-12.79,19.214-12.79,30.878
		c0,11.663,4.543,22.629,12.79,30.876c8.247,8.248,19.213,12.79,30.876,12.79s22.629-4.542,30.877-12.789
		c17.024-17.025,17.024-44.729,0-61.755C133.349,164.163,122.384,159.621,110.72,159.621z M131.697,224.264
		c-5.603,5.604-13.053,8.689-20.977,8.689c-7.924,0-15.373-3.086-20.976-8.689c-5.604-5.604-8.689-13.053-8.689-20.977
		s3.086-15.374,8.69-20.979c5.603-5.603,13.052-8.688,20.976-8.688c7.924,0,15.374,3.086,20.977,8.688
		C143.264,193.878,143.264,212.698,131.697,224.264z"/>
</g>
<g>
</g>
<g>
</g>
<g>
</g>
<g>
</g>
<g>
</g>
<g>
</g>
<g>
</g>
<g>
</g>
<g>
</g>
<g>
</g>
<g>
</g>
<g>
</g>
<g>
</g>
<g>
</g>
<g>
</g>
</svg>
