<?xml version="1.0" encoding="iso-8859-1"?>
<!-- Generator: Adobe Illustrator 18.0.0, SVG Export Plug-In . SVG Version: 6.00 Build 0)  -->
<!DOCTYPE svg PUBLIC "-//W3C//DTD SVG 1.1//EN" "http://www.w3.org/Graphics/SVG/1.1/DTD/svg11.dtd">
<svg version="1.1" id="Capa_1" xmlns="http://www.w3.org/2000/svg" xmlns:xlink="http://www.w3.org/1999/xlink" x="0px" y="0px"
	 viewBox="0 0 314 314" style="enable-background:new 0 0 314 314;" xml:space="preserve">
<g>
	<path d="M157,121.212c-19.733,0-35.788,16.055-35.788,35.788s16.055,35.788,35.788,35.788s35.788-16.055,35.788-35.788
		S176.733,121.212,157,121.212z M157,178.788c-12.014,0-21.788-9.774-21.788-21.788s9.774-21.788,21.788-21.788
		s21.788,9.774,21.788,21.788S169.014,178.788,157,178.788z"/>
	<path d="M157,92.424c-35.607,0-64.576,28.969-64.576,64.576s28.969,64.576,64.576,64.576s64.576-28.969,64.576-64.576
		S192.607,92.424,157,92.424z M157,207.576c-27.888,0-50.576-22.689-50.576-50.576s22.688-50.576,50.576-50.576
		s50.576,22.689,50.576,50.576S184.888,207.576,157,207.576z"/>
	<path d="M157,0C70.43,0,0,70.43,0,157s70.43,157,157,157s157-70.43,157-157S243.57,0,157,0z M157,300c-78.851,0-143-64.149-143-143
		S78.149,14,157,14s143,64.149,143,143S235.851,300,157,300z"/>
	<path d="M258.278,81.66c-2.712-2.756-7.145-2.792-9.899-0.081c-2.756,2.711-2.792,7.144-0.081,9.899
		c16.417,16.688,25.833,40.569,25.833,65.52c0,24.953-9.416,48.836-25.833,65.525c-2.711,2.756-2.675,7.188,0.081,9.899
		c1.363,1.341,3.137,2.01,4.909,2.01c1.811,0,3.62-0.698,4.99-2.091c18.972-19.286,29.853-46.747,29.853-75.343
		C288.131,128.404,277.25,100.945,258.278,81.66z"/>
	<path d="M240.496,104.659c-2.712-2.757-7.144-2.792-9.899-0.081c-2.756,2.712-2.792,7.144-0.081,9.899
		c10.64,10.814,16.741,26.312,16.741,42.521c0,16.211-6.102,31.71-16.741,42.524c-2.711,2.756-2.675,7.188,0.081,9.898
		c1.363,1.342,3.137,2.011,4.909,2.011c1.811,0,3.62-0.698,4.989-2.091c13.194-13.41,20.762-32.487,20.762-52.342
		C261.257,137.148,253.689,118.07,240.496,104.659z"/>
</g>
<g>
</g>
<g>
</g>
<g>
</g>
<g>
</g>
<g>
</g>
<g>
</g>
<g>
</g>
<g>
</g>
<g>
</g>
<g>
</g>
<g>
</g>
<g>
</g>
<g>
</g>
<g>
</g>
<g>
</g>
</svg>
