<?xml version="1.0" encoding="iso-8859-1"?>
<!-- Generator: Adobe Illustrator 18.0.0, SVG Export Plug-In . SVG Version: 6.00 Build 0)  -->
<!DOCTYPE svg PUBLIC "-//W3C//DTD SVG 1.1//EN" "http://www.w3.org/Graphics/SVG/1.1/DTD/svg11.dtd">
<svg version="1.1" id="Capa_1" xmlns="http://www.w3.org/2000/svg" xmlns:xlink="http://www.w3.org/1999/xlink" x="0px" y="0px"
	 viewBox="0 0 314 314" style="enable-background:new 0 0 314 314;" xml:space="preserve">
<g>
	<path d="M204.495,86.607V31.932c0-2.43-1.26-4.687-3.329-5.96c-2.07-1.276-4.653-1.386-6.821-0.291L94.744,75.874H16.593
		C7.443,75.874,0,83.318,0,92.467v76.162c0,9.15,7.443,16.595,16.593,16.595h9.643v87.251c0,9.149,7.443,16.594,16.593,16.594H58.39
		c9.149,0,16.593-7.444,16.593-16.594v-87.251h19.766l99.597,50.19c0.993,0.501,2.073,0.749,3.15,0.749
		c1.275,0,2.549-0.349,3.671-1.04c2.069-1.273,3.329-3.53,3.329-5.96v-55.982c20.864-3.362,36.853-21.489,36.853-43.287
		C241.348,108.097,225.359,89.969,204.495,86.607z M14,168.629V92.467c0-1.405,1.187-2.593,2.593-2.593h72.819v81.35H16.593
		C15.187,171.224,14,170.036,14,168.629z M60.982,272.475c0,1.406-1.188,2.594-2.593,2.594H42.829c-1.405,0-2.593-1.188-2.593-2.594
		v-87.251h20.746V272.475z M190.495,217.797l-87.083-43.885V87.183l87.083-43.885V217.797z M204.495,158.911v-58.032
		c13.094,3.159,22.853,14.967,22.853,29.017C227.348,143.945,217.589,155.751,204.495,158.911z"/>
	<path d="M274.481,98.275c-2.712-2.756-7.145-2.793-9.899-0.081c-2.756,2.711-2.792,7.143-0.081,9.899
		c5.433,5.522,8.549,13.469,8.549,21.8c0,8.334-3.116,16.281-8.549,21.804c-2.711,2.756-2.675,7.189,0.081,9.899
		c1.363,1.341,3.137,2.01,4.909,2.01c1.811,0,3.62-0.698,4.99-2.091c7.987-8.12,12.568-19.645,12.568-31.622
		C287.05,117.919,282.469,106.395,274.481,98.275z"/>
	<path d="M294.936,81.845c-2.712-2.757-7.143-2.792-9.899-0.081c-2.756,2.711-2.792,7.143-0.081,9.899
		c9.561,9.719,15.044,23.653,15.044,38.229c0,14.579-5.483,28.515-15.044,38.232c-2.711,2.756-2.675,7.188,0.081,9.899
		c1.363,1.341,3.137,2.01,4.909,2.01c1.811,0,3.62-0.698,4.99-2.091C307.052,165.628,314,148.115,314,129.893
		C314,111.674,307.052,94.162,294.936,81.845z"/>
</g>
<g>
</g>
<g>
</g>
<g>
</g>
<g>
</g>
<g>
</g>
<g>
</g>
<g>
</g>
<g>
</g>
<g>
</g>
<g>
</g>
<g>
</g>
<g>
</g>
<g>
</g>
<g>
</g>
<g>
</g>
</svg>
