<?xml version="1.0" encoding="iso-8859-1"?>
<!-- Generator: Adobe Illustrator 18.0.0, SVG Export Plug-In . SVG Version: 6.00 Build 0)  -->
<!DOCTYPE svg PUBLIC "-//W3C//DTD SVG 1.1//EN" "http://www.w3.org/Graphics/SVG/1.1/DTD/svg11.dtd">
<svg version="1.1" id="Capa_1" xmlns="http://www.w3.org/2000/svg" xmlns:xlink="http://www.w3.org/1999/xlink" x="0px" y="0px"
	 viewBox="0 0 314 314" style="enable-background:new 0 0 314 314;" xml:space="preserve">
<g>
	<path d="M307,52.232H165.741c-6.022,0-12.637-7.089-19.033-13.945c-8.307-8.903-17.722-18.994-30.515-18.994H7
		c-3.866,0-7,3.134-7,7v261.414c0,3.866,3.134,7,7,7h300c3.866,0,7-3.134,7-7V59.232C314,55.366,310.866,52.232,307,52.232z
		 M300,280.707H14V33.293h102.193c6.708,0,13.606,7.395,20.278,14.545c8.438,9.044,17.162,18.395,29.27,18.395H300V280.707z"/>
</g>
<path d="M219.634,205.779v-0.022l0,0l0,0l-0.001-92.289c0-2.039-0.889-3.977-2.435-5.307c-1.546-1.329-3.593-1.92-5.611-1.615
	l-86.907,13.128c-3.423,0.518-5.954,3.46-5.954,6.922v75.471c-2.071-0.564-4.271-0.873-6.544-0.873
	c-5.726,0-11.396,1.809-15.964,5.093c-5.181,3.722-8.419,9.032-8.885,14.568c-0.473,5.573,1.937,11.044,6.446,14.638
	c3.705,2.949,8.693,4.574,14.046,4.574c2.483,0,4.983-0.348,7.434-1.033c8.226-2.308,17.467-9.567,17.467-20.126v-86.289
	l72.907-11.014l0.001,67.333c-2.072-0.564-4.271-0.873-6.545-0.873c-5.725,0-11.395,1.809-15.963,5.092
	c-5.181,3.722-8.42,9.032-8.887,14.571c-0.47,5.573,1.939,11.044,6.447,14.636c3.705,2.949,8.693,4.574,14.047,4.574
	c2.488,0,4.989-0.348,7.432-1.033C210.391,223.597,219.634,216.381,219.634,205.779z M111.48,225.552
	c-3.405,0.955-7.084,0.497-8.979-1.011c-0.84-0.669-1.296-1.605-1.219-2.508c0.118-1.41,1.308-3.088,3.104-4.378
	c2.177-1.564,5.018-2.462,7.795-2.462c2.167,0,4.108,0.557,5.328,1.528c0.759,0.604,1.214,1.429,1.216,2.204
	C118.733,221.762,114.97,224.574,111.48,225.552z M189.408,211.412c-0.839-0.669-1.294-1.605-1.218-2.508
	c0.118-1.41,1.308-3.088,3.105-4.378c2.177-1.564,5.018-2.462,7.794-2.462c2.167,0,4.109,0.557,5.328,1.526
	c0.76,0.605,1.214,1.432,1.217,2.207c0.008,2.835-3.757,5.647-7.25,6.627C194.997,213.373,191.306,212.922,189.408,211.412z"/>
<g>
</g>
<g>
</g>
<g>
</g>
<g>
</g>
<g>
</g>
<g>
</g>
<g>
</g>
<g>
</g>
<g>
</g>
<g>
</g>
<g>
</g>
<g>
</g>
<g>
</g>
<g>
</g>
<g>
</g>
</svg>
