<?xml version="1.0" encoding="iso-8859-1"?>
<!-- Generator: Adobe Illustrator 18.0.0, SVG Export Plug-In . SVG Version: 6.00 Build 0)  -->
<!DOCTYPE svg PUBLIC "-//W3C//DTD SVG 1.1//EN" "http://www.w3.org/Graphics/SVG/1.1/DTD/svg11.dtd">
<svg version="1.1" id="Capa_1" xmlns="http://www.w3.org/2000/svg" xmlns:xlink="http://www.w3.org/1999/xlink" x="0px" y="0px"
	 viewBox="0 0 314 314" style="enable-background:new 0 0 314 314;" xml:space="preserve">
<path d="M164,77.729V7c0-3.866-3.134-7-7-7s-7,3.134-7,7v70.729c-50.388,3.733-90.283,47.435-90.283,100.621v49.02
	c0,3.866,3.134,7,7,7h19.824v5.568C86.541,280.776,118.148,314,157,314c38.851,0,70.457-33.224,70.457-74.061v-5.568h19.826
	c3.866,0,7-3.134,7-7v-49.02C254.283,125.164,214.388,81.463,164,77.729z M213.457,202.145h-30.764c-3.866,0-7,3.134-7,7
	c0,3.866,3.134,7,7,7h30.764v23.794c0,1.652-0.08,3.285-0.204,4.904h-30.559c-3.866,0-7,3.134-7,7c0,3.866,3.134,7,7,7h27.882
	C203.11,282.725,181.923,300,157,300c-24.924,0-46.111-17.275-53.577-41.156h27.882c3.866,0,7-3.134,7-7c0-3.866-3.134-7-7-7h-30.56
	c-0.124-1.619-0.204-3.252-0.204-4.904v-23.796h30.764c3.866,0,7-3.134,7-7c0-3.866-3.134-7-7-7h-30.764v-23.795
	c0-1.652,0.08-3.284,0.204-4.903h30.56c3.866,0,7-3.134,7-7s-3.134-7-7-7h-27.882c7.465-23.881,28.653-41.156,53.577-41.156
	c24.923,0,46.11,17.275,53.576,41.156h-27.883c-3.866,0-7,3.134-7,7s3.134,7,7,7h30.559c0.124,1.619,0.204,3.251,0.204,4.903
	V202.145z M240.283,220.371h-12.826v-42.022c0-40.837-31.606-74.06-70.457-74.06c-38.852,0-70.459,33.223-70.459,74.06v42.022
	H73.717v-42.02c0-47.908,37.36-86.885,83.283-86.885s83.283,38.977,83.283,86.885V220.371z"/>
<g>
</g>
<g>
</g>
<g>
</g>
<g>
</g>
<g>
</g>
<g>
</g>
<g>
</g>
<g>
</g>
<g>
</g>
<g>
</g>
<g>
</g>
<g>
</g>
<g>
</g>
<g>
</g>
<g>
</g>
</svg>
