<?xml version="1.0" encoding="iso-8859-1"?>
<!-- Generator: Adobe Illustrator 18.0.0, SVG Export Plug-In . SVG Version: 6.00 Build 0)  -->
<!DOCTYPE svg PUBLIC "-//W3C//DTD SVG 1.1//EN" "http://www.w3.org/Graphics/SVG/1.1/DTD/svg11.dtd">
<svg version="1.1" id="Capa_1" xmlns="http://www.w3.org/2000/svg" xmlns:xlink="http://www.w3.org/1999/xlink" x="0px" y="0px"
	 viewBox="0 0 314 314" style="enable-background:new 0 0 314 314;" xml:space="preserve">
<g>
	<path d="M260.326,21.419C246.512,7.606,228.147,0,208.612,0c-19.535,0-37.9,7.606-51.713,21.419
		c-13.814,13.814-21.421,32.181-21.421,51.716c0,5.448,0.612,10.799,1.766,15.992L38.254,210.638
		c-5.913,7.257-6.315,17.917-1.563,25.767c-7.424,10.697-5.469,25.639,5.374,36.481c14.342,14.341,40.247,17.378,65.797-8.17
		c14.771-14.771,36.186-23.261,48.542-10.907c8.918,8.918,9.215,27.818-11.208,48.242c-2.733,2.733-2.733,7.165,0.001,9.899
		c1.366,1.366,3.158,2.05,4.949,2.05c1.791,0,3.583-0.684,4.95-2.051c27.224-27.225,24.893-54.354,11.207-68.04
		c-7.666-7.666-18.925-11.172-30.889-9.616c-12.73,1.653-25.681,8.751-37.452,20.522c-19.992,19.99-37.272,16.897-45.998,8.171
		c-5.457-5.457-6.52-11.569-4.945-16.123c3.622,2.275,7.867,3.439,12.118,3.439c4.992,0,9.984-1.592,13.954-4.826L196.18,145.201
		c4.068,0.692,8.221,1.067,12.432,1.067c19.535,0,37.9-7.607,51.713-21.42c13.814-13.813,21.422-32.179,21.422-51.714
		C281.746,53.6,274.139,35.233,260.326,21.419z M64.249,234.623c-3.062,2.494-8.201,2.233-10.994-0.562l-3.588-3.587
		c-2.793-2.794-3.055-7.932-0.559-10.995l93.502-114.774c3.536,7.379,8.332,14.186,14.289,20.143
		c6.715,6.715,14.51,11.949,22.987,15.57L64.249,234.623z M250.425,114.949c-11.168,11.169-26.018,17.319-41.814,17.319
		c-15.795,0-30.645-6.15-41.813-17.32c-11.169-11.168-17.32-26.018-17.32-41.813c0-15.796,6.151-30.647,17.321-41.816
		C177.967,20.15,192.817,14,208.612,14c15.796,0,30.646,6.15,41.814,17.319c11.17,11.169,17.321,26.02,17.321,41.816
		C267.746,88.93,261.595,103.78,250.425,114.949z"/>
	<path d="M241.959,43.733c-2.712-2.757-7.144-2.792-9.899-0.081c-2.756,2.711-2.792,7.144-0.081,9.899
		c5.384,5.473,8.472,13.348,8.472,21.606c0,8.26-3.088,16.137-8.472,21.611c-2.711,2.756-2.675,7.188,0.082,9.898
		c1.363,1.341,3.136,2.01,4.908,2.01c1.811,0,3.62-0.698,4.99-2.092c7.938-8.07,12.491-19.525,12.491-31.428
		C254.451,63.257,249.898,51.804,241.959,43.733z"/>
</g>
<g>
</g>
<g>
</g>
<g>
</g>
<g>
</g>
<g>
</g>
<g>
</g>
<g>
</g>
<g>
</g>
<g>
</g>
<g>
</g>
<g>
</g>
<g>
</g>
<g>
</g>
<g>
</g>
<g>
</g>
</svg>
