<?xml version="1.0" encoding="iso-8859-1"?>
<!-- Generator: Adobe Illustrator 18.0.0, SVG Export Plug-In . SVG Version: 6.00 Build 0)  -->
<!DOCTYPE svg PUBLIC "-//W3C//DTD SVG 1.1//EN" "http://www.w3.org/Graphics/SVG/1.1/DTD/svg11.dtd">
<svg version="1.1" id="Capa_1" xmlns="http://www.w3.org/2000/svg" xmlns:xlink="http://www.w3.org/1999/xlink" x="0px" y="0px"
	 viewBox="0 0 314 314" style="enable-background:new 0 0 314 314;" xml:space="preserve">
<g>
	<path d="M199.335,48.582c-3.866,0-7,3.134-7,7v81.952c0,19.483-15.852,35.334-35.335,35.334s-35.335-15.851-35.335-35.334V55.582
		c0-3.866-3.134-7-7-7c-3.866,0-7,3.134-7,7v81.952c0,24.826,18.437,45.418,42.335,48.829v98.067c0,3.866,3.134,7,7,7s7-3.134,7-7
		v-98.067c23.898-3.411,42.335-24.003,42.335-48.829V55.582C206.335,51.715,203.201,48.582,199.335,48.582z"/>
	<path d="M245.023,49.574c-2.756,2.712-2.792,7.144-0.081,9.899c8.932,9.078,14.055,22.102,14.055,35.73
		c0,13.629-5.123,26.653-14.055,35.732c-2.711,2.756-2.675,7.188,0.081,9.899c1.363,1.341,3.137,2.01,4.909,2.01
		c1.811,0,3.62-0.698,4.99-2.091c11.486-11.677,18.074-28.279,18.074-45.551s-6.588-33.873-18.074-45.548
		C252.211,46.899,247.778,46.862,245.023,49.574z"/>
	<path d="M286.044,24.661c-2.712-2.756-7.144-2.793-9.899-0.081c-2.756,2.712-2.792,7.143-0.081,9.899
		C291.275,49.941,300,72.073,300,95.202c0,23.13-8.725,45.265-23.936,60.729c-2.711,2.756-2.675,7.188,0.081,9.899
		c1.363,1.341,3.137,2.01,4.909,2.01c1.811,0,3.62-0.698,4.99-2.091C303.81,147.688,314,121.975,314,95.202
		C314,68.43,303.81,42.719,286.044,24.661z"/>
	<path d="M68.977,49.574c-2.756-2.712-7.188-2.675-9.9,0.081C47.591,61.33,41.003,77.931,41.003,95.203s6.588,33.874,18.074,45.551
		c1.37,1.393,3.18,2.091,4.99,2.091c1.772,0,3.546-0.669,4.909-2.01c2.756-2.711,2.792-7.144,0.081-9.899
		c-8.932-9.079-14.055-22.104-14.055-35.732c0-13.628,5.123-26.651,14.055-35.73C71.769,56.717,71.732,52.286,68.977,49.574z"/>
	<path d="M37.854,24.58c-2.757-2.712-7.188-2.675-9.899,0.081C10.189,42.719,0,68.431,0,95.202
		c0,26.772,10.189,52.485,27.955,70.547c1.37,1.393,3.18,2.091,4.99,2.091c1.772,0,3.546-0.669,4.909-2.01
		c2.756-2.711,2.792-7.143,0.081-9.899C22.725,140.466,14,118.332,14,95.202c0-23.128,8.724-45.261,23.936-60.723
		C40.646,31.723,40.61,27.292,37.854,24.58z"/>
</g>
<g>
</g>
<g>
</g>
<g>
</g>
<g>
</g>
<g>
</g>
<g>
</g>
<g>
</g>
<g>
</g>
<g>
</g>
<g>
</g>
<g>
</g>
<g>
</g>
<g>
</g>
<g>
</g>
<g>
</g>
</svg>
