<?xml version="1.0" encoding="iso-8859-1"?>
<!-- Generator: Adobe Illustrator 18.0.0, SVG Export Plug-In . SVG Version: 6.00 Build 0)  -->
<!DOCTYPE svg PUBLIC "-//W3C//DTD SVG 1.1//EN" "http://www.w3.org/Graphics/SVG/1.1/DTD/svg11.dtd">
<svg version="1.1" id="Capa_1" xmlns="http://www.w3.org/2000/svg" xmlns:xlink="http://www.w3.org/1999/xlink" x="0px" y="0px"
	 viewBox="0 0 314 314" style="enable-background:new 0 0 314 314;" xml:space="preserve">
<g>
	<path d="M180.761,32.99c-2.069-1.275-4.651-1.386-6.821-0.291L54.42,92.932H18.484C8.292,92.932,0,101.223,0,111.414v91.172
		c0,10.192,8.292,18.484,18.484,18.484H54.42l119.52,60.231c0.993,0.501,2.073,0.749,3.15,0.749c1.275,0,2.549-0.349,3.671-1.04
		c2.069-1.273,3.329-3.53,3.329-5.96V38.95C184.09,36.52,182.83,34.263,180.761,32.99z M14,202.586v-91.172
		c0-2.43,2.054-4.482,4.484-4.482h30.603v100.139H18.484C16.054,207.071,14,205.017,14,202.586z M170.09,263.685L63.088,209.762
		V104.241L170.09,50.316V263.685z"/>
	<path d="M238.39,120.035c-2.756,2.711-2.792,7.143-0.081,9.899c6.754,6.866,10.628,16.73,10.628,27.064
		c0,10.334-3.874,20.201-10.629,27.069c-2.711,2.757-2.674,7.189,0.083,9.899c1.363,1.341,3.136,2.009,4.908,2.009
		c1.811,0,3.621-0.698,4.991-2.092c9.308-9.465,14.646-22.909,14.646-36.886c0-13.977-5.339-27.419-14.647-36.883
		C245.577,117.359,241.145,117.324,238.39,120.035z"/>
	<path d="M291.577,100.451c-2.712-2.757-7.143-2.792-9.899-0.081c-2.756,2.711-2.792,7.143-0.081,9.899
		C293.292,122.159,300,139.191,300,156.998c0,17.81-6.708,34.845-18.403,46.736c-2.711,2.756-2.675,7.188,0.082,9.898
		c1.363,1.341,3.136,2.01,4.908,2.01c1.811,0,3.62-0.698,4.99-2.092C305.827,199.063,314,178.451,314,156.998
		C314,135.548,305.827,114.937,291.577,100.451z"/>
</g>
<g>
</g>
<g>
</g>
<g>
</g>
<g>
</g>
<g>
</g>
<g>
</g>
<g>
</g>
<g>
</g>
<g>
</g>
<g>
</g>
<g>
</g>
<g>
</g>
<g>
</g>
<g>
</g>
<g>
</g>
</svg>
