<?xml version="1.0" encoding="iso-8859-1"?>
<!-- Generator: Adobe Illustrator 18.0.0, SVG Export Plug-In . SVG Version: 6.00 Build 0)  -->
<!DOCTYPE svg PUBLIC "-//W3C//DTD SVG 1.1//EN" "http://www.w3.org/Graphics/SVG/1.1/DTD/svg11.dtd">
<svg version="1.1" id="Capa_1" xmlns="http://www.w3.org/2000/svg" xmlns:xlink="http://www.w3.org/1999/xlink" x="0px" y="0px"
	 viewBox="0 0 314 314" style="enable-background:new 0 0 314 314;" xml:space="preserve">
<path d="M268.734,1.04c-2.069-1.274-4.651-1.386-6.821-0.291L109.645,77.486H63.53c-11.906,0-21.593,9.687-21.593,21.593v115.847
	c0,11.905,9.687,21.592,21.593,21.592h46.112l152.27,76.734c0.993,0.501,2.073,0.749,3.15,0.749c1.275,0,2.549-0.349,3.671-1.04
	c2.069-1.273,3.329-3.53,3.329-5.96V7C272.063,4.571,270.803,2.314,268.734,1.04z M55.938,214.925V99.078
	c0-4.187,3.406-7.593,7.593-7.593h40.78v131.031H63.53C59.344,222.517,55.938,219.112,55.938,214.925z M258.063,295.634
	l-139.752-70.426V88.795l139.752-70.429V295.634z"/>
<g>
</g>
<g>
</g>
<g>
</g>
<g>
</g>
<g>
</g>
<g>
</g>
<g>
</g>
<g>
</g>
<g>
</g>
<g>
</g>
<g>
</g>
<g>
</g>
<g>
</g>
<g>
</g>
<g>
</g>
</svg>
