<?xml version="1.0" encoding="iso-8859-1"?>
<!-- Generator: Adobe Illustrator 18.0.0, SVG Export Plug-In . SVG Version: 6.00 Build 0)  -->
<!DOCTYPE svg PUBLIC "-//W3C//DTD SVG 1.1//EN" "http://www.w3.org/Graphics/SVG/1.1/DTD/svg11.dtd">
<svg version="1.1" id="Capa_1" xmlns="http://www.w3.org/2000/svg" xmlns:xlink="http://www.w3.org/1999/xlink" x="0px" y="0px"
	 viewBox="0 0 314 314" style="enable-background:new 0 0 314 314;" xml:space="preserve">
<g>
	<path d="M177.546,35.222c-2.068-1.274-4.651-1.386-6.821-0.291L53.495,94.009H18.267C8.194,94.009,0,102.203,0,112.276v89.449
		c0,10.072,8.194,18.267,18.267,18.267h35.225l117.233,59.078c0.993,0.501,2.073,0.749,3.15,0.749c1.275,0,2.549-0.349,3.671-1.04
		c2.069-1.273,3.329-3.53,3.329-5.96V41.182C180.875,38.752,179.615,36.495,177.546,35.222z M14,201.725v-89.449
		c0-2.313,1.954-4.267,4.267-4.267h29.893v97.982H18.267C15.954,205.991,14,204.037,14,201.725z M166.875,261.452L62.159,208.682
		V105.319l104.716-52.771V261.452z"/>
	<path d="M285.915,157l26.035-26.035c2.733-2.733,2.733-7.165-0.001-9.899c-2.732-2.732-7.165-2.733-9.899,0.001l-26.033,26.034
		l-26.034-26.034c-2.733-2.732-7.166-2.733-9.899-0.001c-2.734,2.734-2.734,7.166-0.001,9.899L266.116,157l-26.034,26.035
		c-2.733,2.733-2.733,7.165,0.001,9.899c1.366,1.366,3.158,2.05,4.949,2.05s3.583-0.684,4.95-2.051l26.034-26.034l26.033,26.034
		c1.367,1.367,3.158,2.051,4.95,2.051c1.791,0,3.583-0.684,4.949-2.05c2.734-2.734,2.734-7.166,0.001-9.899L285.915,157z"/>
</g>
<g>
</g>
<g>
</g>
<g>
</g>
<g>
</g>
<g>
</g>
<g>
</g>
<g>
</g>
<g>
</g>
<g>
</g>
<g>
</g>
<g>
</g>
<g>
</g>
<g>
</g>
<g>
</g>
<g>
</g>
</svg>
