<?xml version="1.0" encoding="iso-8859-1"?>
<!-- Generator: Adobe Illustrator 18.0.0, SVG Export Plug-In . SVG Version: 6.00 Build 0)  -->
<!DOCTYPE svg PUBLIC "-//W3C//DTD SVG 1.1//EN" "http://www.w3.org/Graphics/SVG/1.1/DTD/svg11.dtd">
<svg version="1.1" id="Capa_1" xmlns="http://www.w3.org/2000/svg" xmlns:xlink="http://www.w3.org/1999/xlink" x="0px" y="0px"
	 viewBox="0 0 314 314" style="enable-background:new 0 0 314 314;" xml:space="preserve">
<g>
	<path d="M270.814,257.744c0.065-0.092,0.128-0.186,0.189-0.281c0.055-0.086,0.108-0.174,0.16-0.264
		c0.059-0.102,0.116-0.205,0.17-0.31c0.045-0.087,0.086-0.174,0.127-0.263c0.051-0.112,0.102-0.224,0.146-0.339
		c0.035-0.088,0.066-0.177,0.098-0.266c0.041-0.117,0.082-0.234,0.117-0.355c0.028-0.097,0.051-0.194,0.075-0.292
		c0.028-0.114,0.058-0.229,0.08-0.345c0.023-0.121,0.039-0.243,0.056-0.365c0.014-0.097,0.031-0.192,0.04-0.29
		c0.022-0.224,0.034-0.448,0.034-0.675V7c0-3.866-3.134-7-7-7H48.894c-3.866,0-7,3.134-7,7v300c0,3.866,3.134,7,7,7h168.575
		c0.248,0,0.493-0.014,0.735-0.039c0.034-0.004,0.067-0.012,0.102-0.016c0.208-0.025,0.415-0.057,0.617-0.099
		c0.041-0.009,0.08-0.023,0.121-0.031c0.194-0.045,0.387-0.095,0.575-0.155c0.051-0.017,0.1-0.038,0.15-0.056
		c0.174-0.061,0.345-0.124,0.512-0.197c0.066-0.028,0.128-0.061,0.191-0.093c0.147-0.07,0.294-0.143,0.436-0.222
		c0.075-0.043,0.148-0.09,0.223-0.136c0.124-0.076,0.247-0.154,0.366-0.238c0.08-0.057,0.157-0.117,0.235-0.177
		c0.107-0.083,0.213-0.167,0.314-0.256c0.079-0.068,0.156-0.139,0.232-0.21c0.096-0.092,0.189-0.186,0.279-0.282
		c0.042-0.044,0.088-0.083,0.129-0.129l47.637-53.3c0.031-0.034,0.057-0.072,0.087-0.107c0.071-0.082,0.14-0.167,0.206-0.252
		C270.686,257.92,270.751,257.832,270.814,257.744z M55.894,14h202.213v232.7h-40.638c-3.866,0-7,3.134-7,7V300H55.894V14z
		 M249.462,260.7l-24.993,27.964V260.7H249.462z"/>
	<path d="M223.18,168.999v-0.022l0,0l0,0l-0.001-92.289c0-2.039-0.889-3.977-2.435-5.307c-1.546-1.329-3.593-1.92-5.611-1.615
		l-86.907,13.128c-3.423,0.518-5.954,3.46-5.954,6.922v75.471c-2.071-0.563-4.27-0.873-6.544-0.873
		c-5.725,0-11.395,1.809-15.964,5.093c-5.181,3.722-8.419,9.032-8.885,14.568c-0.473,5.573,1.937,11.044,6.446,14.638
		c3.705,2.949,8.693,4.574,14.046,4.574c2.483,0,4.983-0.348,7.434-1.033c8.226-2.308,17.467-9.567,17.467-20.126V95.838
		l72.907-11.014l0.001,67.333c-2.072-0.563-4.272-0.873-6.545-0.873c-5.725,0-11.395,1.809-15.963,5.092
		c-5.181,3.722-8.42,9.032-8.887,14.571c-0.47,5.573,1.939,11.044,6.447,14.636c3.705,2.949,8.693,4.574,14.047,4.574
		c2.488,0,4.989-0.348,7.432-1.033C213.937,186.816,223.18,179.601,223.18,168.999z M115.026,188.771
		c-3.405,0.955-7.084,0.497-8.979-1.011c-0.84-0.669-1.296-1.605-1.219-2.508c0.118-1.41,1.308-3.088,3.104-4.378
		c2.177-1.564,5.018-2.462,7.795-2.462c2.167,0,4.108,0.557,5.328,1.528c0.759,0.604,1.214,1.429,1.216,2.204
		C122.279,184.981,118.516,187.794,115.026,188.771z M192.954,174.632c-0.839-0.669-1.294-1.605-1.218-2.508
		c0.118-1.41,1.308-3.088,3.105-4.378c2.177-1.564,5.018-2.462,7.794-2.462c2.167,0,4.109,0.557,5.328,1.526
		c0.76,0.605,1.214,1.432,1.217,2.207c0.008,2.835-3.757,5.647-7.25,6.627C198.543,176.593,194.852,176.142,192.954,174.632z"/>
</g>
<g>
</g>
<g>
</g>
<g>
</g>
<g>
</g>
<g>
</g>
<g>
</g>
<g>
</g>
<g>
</g>
<g>
</g>
<g>
</g>
<g>
</g>
<g>
</g>
<g>
</g>
<g>
</g>
<g>
</g>
</svg>
